<svg width="64" height="65" viewBox="0 0 64 65" fill="none" xmlns="http://www.w3.org/2000/svg">
<path d="M62.735 43.58L58.6 42.835C58.65 41.915 58.645 40.985 58.6 40.055L62.8 39.43C62.9386 39.4097 63.0718 39.3623 63.192 39.2905C63.3122 39.2186 63.4171 39.1238 63.5007 39.0115C63.5843 38.8991 63.6449 38.7714 63.6791 38.6356C63.7133 38.4998 63.7204 38.3586 63.7 38.22C63.615 37.64 63.07 37.24 62.49 37.32L58.4 37.93C57.95 34.94 56.8 31.96 55.06 29.275C55.585 24.265 56.59 10.685 52.515 7.95C49.265 5.77 41.535 13.86 39.045 16.765C38.47 17.435 37.945 18.04 37.465 18.59C35.725 18.325 33.955 18.18 32.19 18.18C30.425 18.175 28.66 18.325 26.92 18.59C26.44 18.04 25.915 17.435 25.34 16.765C22.85 13.86 15.12 5.77 11.875 7.95C7.80001 10.685 8.81001 24.265 9.33001 29.275C7.59501 31.955 6.43501 34.94 5.99001 37.93L1.90001 37.32C1.32001 37.24 0.77501 37.635 0.68501 38.22C0.59501 38.8 1.00001 39.345 1.58001 39.43L5.78001 40.055C5.73501 40.985 5.73001 41.915 5.78001 42.835L1.65001 43.58C1.38687 43.6261 1.15065 43.7694 0.988153 43.9814C0.825655 44.1934 0.748736 44.4588 0.772639 44.7249C0.796541 44.9909 0.919521 45.2383 1.11721 45.418C1.3149 45.5977 1.57287 45.6965 1.84001 45.695C1.90001 45.695 1.96501 45.69 2.03001 45.68L6.00001 44.965C6.16501 46.015 6.40501 47.05 6.75001 48.055L3.51001 49.08C3.24103 49.1668 3.01716 49.3562 2.88703 49.6071C2.7569 49.858 2.73102 50.1501 2.81501 50.42C2.90068 50.6898 3.08993 50.9145 3.34119 51.0448C3.59244 51.1751 3.88515 51.2004 4.15501 51.115L7.58001 50.03C8.57001 51.975 10.02 53.765 12.07 55.295C15.095 57.55 18.855 59.08 22.735 59.91C24.205 60.225 28.015 60.96 32.01 60.96C36.005 60.96 40.185 60.225 41.66 59.91C45.535 59.08 49.3 57.55 52.325 55.295C54.375 53.765 55.825 51.975 56.815 50.03L60.235 51.115C60.5049 51.2004 60.7976 51.1751 61.0488 51.0448C61.3001 50.9145 61.4893 50.6898 61.575 50.42C61.755 49.86 61.445 49.26 60.885 49.08L57.645 48.05C57.99 47.05 58.235 46.015 58.395 44.96L62.37 45.675C62.6482 45.7234 62.9343 45.6602 63.1664 45.4993C63.3984 45.3384 63.5578 45.0925 63.61 44.815C63.6525 44.5359 63.585 44.2512 63.4218 44.0209C63.2586 43.7905 63.0124 43.6325 62.735 43.58Z" fill="#F79329"/>
<path d="M35.4751 52.095C35.5801 52.325 35.3901 52.695 35.3351 52.905C35.2651 53.17 35.2001 53.43 35.1201 53.685C34.7401 54.945 34.0901 56.125 32.6951 56.4C31.4051 56.655 30.1651 55.775 29.6801 54.61C29.5001 54.185 29.3601 53.745 29.2101 53.31C29.1301 53.07 29.0501 52.83 28.9751 52.595C28.9201 52.425 28.7751 52.155 28.7951 51.98C29.5051 51.935 30.3301 51.615 30.9401 51.255C31.1401 51.135 31.3651 51.07 31.5501 50.925C31.7151 50.795 31.8201 50.61 32.0301 50.545C32.2401 50.77 32.5951 50.895 32.8551 51.07C33.1701 51.28 33.4901 51.465 33.8301 51.625C34.1451 51.775 34.5201 51.775 34.8451 51.86C35.0151 51.905 35.3001 51.88 35.4251 52.025C35.4501 52.045 35.4651 52.065 35.4751 52.095Z" fill="#ED6C30"/>
<path d="M23.46 41.035C23.46 43.33 21.805 45.185 19.77 45.185C17.735 45.185 16.08 43.325 16.08 41.035C16.08 38.735 17.735 36.88 19.77 36.88C21.805 36.875 23.46 38.735 23.46 41.035Z" fill="#2F2F2F"/>
<path d="M40.63 41.035C40.63 43.33 42.28 45.185 44.32 45.185C46.355 45.185 48.01 43.325 48.01 41.035C48.01 38.735 46.355 36.88 44.32 36.88C42.285 36.875 40.63 38.735 40.63 41.035Z" fill="#2F2F2F"/>
<path d="M32.2399 51.165C31.8549 51.165 31.5449 50.855 31.5449 50.47V46.395C31.5449 46.01 31.8549 45.7 32.2399 45.7C32.6249 45.7 32.9349 46.01 32.9349 46.395V50.47C32.9349 50.855 32.6249 51.165 32.2399 51.165Z" fill="#2F2F2F"/>
<path d="M28.745 52.8C28.53 52.8 28.3 52.79 28.065 52.77C25.235 52.52 23.99 50.325 23.725 49.195C23.6741 48.9742 23.7129 48.7422 23.8329 48.55C23.9529 48.3579 24.1443 48.2212 24.365 48.17C24.474 48.144 24.5871 48.1399 24.6977 48.1578C24.8083 48.1757 24.9143 48.2153 25.0096 48.2743C25.1048 48.3333 25.1875 48.4106 25.2528 48.5016C25.3181 48.5927 25.3647 48.6958 25.39 48.805C25.415 48.91 25.945 50.865 28.215 51.07C30.59 51.285 31.51 50.04 31.55 49.985C31.825 49.605 32.35 49.51 32.735 49.775C33.12 50.04 33.22 50.56 32.96 50.95C32.905 51.03 31.675 52.8 28.745 52.8Z" fill="#2F2F2F"/>
<path d="M35.76 52.8C32.83 52.8 31.6 51.03 31.545 50.95C31.28 50.56 31.385 50.025 31.775 49.76C32.17 49.495 32.7 49.6 32.965 49.99C32.995 50.03 33.93 51.275 36.29 51.065C38.605 50.86 39.11 48.825 39.115 48.805C39.225 48.345 39.685 48.06 40.14 48.165C40.6 48.275 40.885 48.73 40.78 49.19C40.515 50.315 39.265 52.515 36.44 52.765C36.2 52.79 35.975 52.8 35.76 52.8Z" fill="#2F2F2F"/>
<path d="M29.61 46.365C29.65 46.89 30.005 47.44 30.555 47.775C30.995 48.05 31.62 48.185 32.235 48.185C32.845 48.185 33.47 48.05 33.91 47.775C34.46 47.435 34.815 46.89 34.855 46.365C34.895 45.865 34.78 45.355 34.235 45.005C33.935 44.81 33.56 44.68 33.175 44.61C33.03 44.585 32.65 44.52 32.25 44.52C31.855 44.52 31.44 44.58 31.29 44.61C30.905 44.68 30.53 44.81 30.23 45.005C29.69 45.36 29.57 45.865 29.61 46.365Z" fill="#2F2F2F"/>
<path d="M32.215 48.93C31.445 48.93 30.695 48.74 30.16 48.41C29.425 47.955 28.925 47.195 28.865 46.425C28.78 45.305 29.345 44.7 29.825 44.385C30.195 44.15 30.655 43.975 31.155 43.885C31.355 43.845 31.81 43.785 32.245 43.785C32.715 43.785 33.145 43.855 33.305 43.885C33.805 43.975 34.265 44.15 34.63 44.385C35.115 44.7 35.68 45.31 35.59 46.43C35.53 47.195 35.035 47.955 34.295 48.415C33.76 48.745 33.01 48.935 32.24 48.935H32.215V48.93ZM32.25 45.265C31.91 45.265 31.545 45.32 31.43 45.34C31.12 45.4 30.835 45.5 30.635 45.63C30.44 45.755 30.325 45.915 30.355 46.305C30.38 46.605 30.61 46.93 30.95 47.14C31.255 47.33 31.73 47.44 32.225 47.44V48.185L32.235 47.44C32.75 47.44 33.225 47.325 33.525 47.14C33.86 46.935 34.1 46.6 34.12 46.305C34.155 45.915 34.035 45.755 33.84 45.63C33.64 45.5 33.355 45.4 33.05 45.34C32.965 45.33 32.61 45.265 32.25 45.265Z" fill="#2F2F2F"/>
<path d="M32.24 57.33C30.825 57.33 29.465 56.405 28.86 54.95C28.58 54.275 28.015 52.505 27.99 52.43C27.84 51.965 28.1 51.465 28.565 51.315C29.03 51.165 29.53 51.425 29.68 51.89C29.875 52.5 30.295 53.785 30.495 54.265C30.805 55.01 31.625 55.705 32.52 55.53C33.34 55.37 33.88 54.72 34.27 53.43C34.32 53.255 34.425 52.86 34.525 52.49C34.6 52.2 34.675 51.92 34.715 51.775C34.85 51.305 35.33 51.03 35.81 51.165C36.28 51.3 36.555 51.79 36.42 52.26C36.38 52.4 36.31 52.665 36.235 52.945C36.135 53.33 36.025 53.745 35.965 53.94C35.745 54.66 35.085 56.83 32.86 57.27C32.66 57.31 32.45 57.33 32.24 57.33Z" fill="#2F2F2F"/>
</svg>
