<svg width="128" height="129" viewBox="0 0 128 129" fill="none" xmlns="http://www.w3.org/2000/svg">
<path d="M28.6602 65.3998H105.17V84.5998H28.6602V65.3998Z" fill="#2F2F2F"/>
<path d="M41.4297 95.6602H86.9897V114.86H41.4297V95.6602Z" fill="#2F2F2F"/>
<path d="M125.08 85.73L117.23 84.31C117.3 82.43 117.27 80.53 117.15 78.63L125.22 77.43C125.78 77.345 126.284 77.0417 126.621 76.5864C126.958 76.131 127.102 75.5607 127.02 75C126.936 74.4419 126.634 73.9399 126.18 73.6043C125.726 73.2687 125.158 73.1268 124.6 73.21L116.64 74.4C115.65 68.74 113.41 63.13 110.12 58.05C111.17 48.03 113.17 20.88 105.03 15.41C98.5398 11.05 83.0798 27.24 78.0898 33.04C76.9398 34.38 75.8898 35.59 74.9298 36.69C71.4498 36.16 67.9098 35.87 64.3798 35.87C60.8598 35.87 57.3198 36.16 53.8398 36.69C52.8698 35.59 51.8298 34.38 50.6798 33.04C45.6998 27.23 30.2398 11.05 23.7398 15.4C15.5898 20.87 17.6098 48.04 18.6498 58.05C15.3398 63.16 13.0998 68.81 12.1198 74.5L3.4098 73.2C2.85084 73.1194 2.28262 73.262 1.82793 73.5969C1.37323 73.9319 1.06858 74.4322 0.979798 74.99C0.809798 76.16 1.6098 77.25 2.7798 77.42L11.6098 78.74C11.4998 80.55 11.4698 82.37 11.5298 84.17L2.9198 85.72C2.64402 85.7699 2.38076 85.8736 2.14507 86.0252C1.90937 86.1768 1.70586 86.3734 1.54614 86.6037C1.38642 86.834 1.27363 87.0935 1.2142 87.3674C1.15478 87.6413 1.14988 87.9242 1.1998 88.2C1.29077 88.6908 1.55048 89.1344 1.93397 89.4539C2.31746 89.7735 2.8006 89.949 3.2998 89.95C3.4198 89.95 3.5498 89.94 3.6798 89.92L11.8798 88.44C12.1498 90.55 12.5898 92.62 13.2098 94.64L6.6498 96.72C6.11059 96.8918 5.66149 97.2703 5.40094 97.7727C5.14038 98.2751 5.08963 98.8602 5.2598 99.4C5.34361 99.6678 5.47959 99.9164 5.65991 100.131C5.84022 100.346 6.06131 100.524 6.31043 100.653C6.55955 100.782 6.83177 100.861 7.11141 100.884C7.39106 100.908 7.67259 100.876 7.9398 100.79L14.7398 98.63C16.7098 102.88 19.7198 106.78 24.1398 110.08C30.1898 114.59 37.7198 117.65 45.4698 119.31C48.4198 119.94 56.0298 121.41 64.0198 121.41C72.0098 121.41 80.3698 119.94 83.3198 119.31C91.0698 117.65 98.5998 114.59 104.65 110.08C109 106.84 111.98 103.01 113.95 98.84L120.08 100.79C120.62 100.961 121.205 100.91 121.707 100.65C122.21 100.389 122.588 99.9395 122.76 99.4C123.11 98.28 122.49 97.08 121.37 96.72L115.51 94.86C116.16 92.82 116.61 90.72 116.89 88.58L124.34 89.92C124.47 89.94 124.6 89.95 124.72 89.95C125.73 89.95 126.63 89.23 126.82 88.2C127.01 87.05 126.24 85.94 125.08 85.73ZM32.5098 75.69C32.5098 71.11 35.8098 67.4 39.8798 67.4C43.9398 67.4 47.2398 71.11 47.2398 75.69C47.2398 80.27 43.9398 83.99 39.8798 83.99C35.8098 83.99 32.5098 80.28 32.5098 75.69ZM83.8298 99.24C83.5598 100.91 83.1298 102.66 82.3698 104.2C81.2698 106.41 79.5398 108.38 77.3398 109.69C73.0798 112.22 68.1098 112.89 63.1598 112.9C55.6098 112.92 48.0698 108.96 45.6198 102.03C45.4498 101.55 45.0098 100.25 44.8998 99.13C44.8098 98.15 44.9798 97.29 45.8298 97.23C46.9498 97.16 47.7598 98.04 48.5598 98.64C49.2998 99.19 50.2198 99.49 51.0898 99.79C52.1598 100.15 53.2198 100.53 54.3298 100.75C55.5198 100.99 56.8598 100.84 58.0298 100.59C59.7298 100.23 60.9598 99.29 62.3798 98.43C63.2598 97.9 64.2498 97.55 65.3498 97.73C65.9998 97.84 66.6698 98.16 67.2498 98.43C68.0998 98.81 68.9098 99.38 69.7298 99.83C70.4498 100.22 71.2298 100.37 72.0798 100.39C73.9598 100.44 75.8598 100.63 77.6898 100.05C78.5598 99.77 79.3798 99.49 80.1698 99.05C81.6898 98.21 84.3198 96.21 83.8298 99.24ZM88.8998 83.99C84.8298 83.99 81.5298 80.28 81.5298 75.69C81.5298 71.11 84.8298 67.4 88.8998 67.4C92.9598 67.4 96.2598 71.11 96.2598 75.69C96.2598 80.28 92.9598 83.99 88.8998 83.99Z" fill="#F79329"/>
</svg>
