<svg width="240" height="64" viewBox="0 0 240 64" fill="none" xmlns="http://www.w3.org/2000/svg">
<path d="M21.3398 38.4629C21.3398 38.7207 21.293 38.9961 21.1992 39.2891C21.1172 39.5703 20.9941 39.8457 20.8301 40.1152C20.6777 40.373 20.4961 40.6133 20.2852 40.8359C20.0859 41.0469 19.8633 41.2109 19.6172 41.3281C19.4883 41.6562 19.3008 41.9551 19.0547 42.2246C18.8203 42.4941 18.6152 42.7754 18.4395 43.0684C18.1816 43.1738 17.9414 43.3145 17.7188 43.4902C17.5078 43.6543 17.2969 43.8242 17.0859 44C16.875 44.1875 16.6641 44.3633 16.4531 44.5273C16.2422 44.7031 16.0137 44.8379 15.7676 44.9316C15.627 44.9902 15.4746 45.0137 15.3105 45.002C15.1582 44.9902 15 45.002 14.8359 45.0371C14.6719 45.084 14.5078 45.1426 14.3438 45.2129C14.1797 45.2949 14.0156 45.3711 13.8516 45.4414C13.6875 45.5234 13.5234 45.5879 13.3594 45.6348C13.1953 45.6934 13.0254 45.7227 12.8496 45.7227C12.6738 45.7227 12.5039 45.6875 12.3398 45.6172C12.1875 45.5469 12.0117 45.5117 11.8125 45.5117C11.6484 45.5117 11.4902 45.5293 11.3379 45.5645C11.1855 45.5996 11.0156 45.6172 10.8281 45.6172C10.6875 45.6172 10.5234 45.5938 10.3359 45.5469C10.1602 45.5117 9.98438 45.459 9.80859 45.3887C9.63281 45.3184 9.46289 45.2305 9.29883 45.125C9.14648 45.0312 9.02344 44.9316 8.92969 44.8262H8.71875C8.41406 44.8379 8.15625 44.7852 7.94531 44.668C7.73438 44.5625 7.5293 44.4395 7.33008 44.2988C7.14258 44.1582 6.94922 44.0234 6.75 43.8945C6.55078 43.7656 6.30469 43.6836 6.01172 43.6484C5.94141 43.3555 5.79492 43.1387 5.57227 42.998C5.34961 42.8574 5.10938 42.7227 4.85156 42.5938C4.79297 42.4883 4.74023 42.3828 4.69336 42.2773C4.6582 42.1602 4.64062 42.0371 4.64062 41.9082C4.46484 41.8613 4.30664 41.7852 4.16602 41.6797C4.03711 41.5625 3.91406 41.4395 3.79688 41.3105C3.69141 41.1699 3.58594 41.0293 3.48047 40.8887C3.375 40.748 3.25781 40.6191 3.12891 40.502C3.12891 40.4434 3.13477 40.3906 3.14648 40.3438C3.1582 40.2852 3.16406 40.2207 3.16406 40.1504C3.16406 39.9863 3.12891 39.8516 3.05859 39.7461C2.98828 39.6289 2.90625 39.5234 2.8125 39.4297C2.71875 39.3359 2.61914 39.2422 2.51367 39.1484C2.41992 39.043 2.34961 38.9199 2.30273 38.7793C2.24414 38.6504 2.20312 38.5039 2.17969 38.3398C2.16797 38.1641 2.15625 37.9883 2.14453 37.8125C2.14453 37.6367 2.13867 37.4609 2.12695 37.2852C2.12695 37.0977 2.11523 36.9336 2.0918 36.793C2.0332 36.6172 1.94531 36.4473 1.82812 36.2832C1.72266 36.1074 1.65234 35.9316 1.61719 35.7559C1.55859 35.5684 1.52344 35.3574 1.51172 35.123C1.5 34.8887 1.49414 34.6543 1.49414 34.4199C1.50586 34.1738 1.51758 33.9336 1.5293 33.6992C1.54102 33.4531 1.54688 33.2246 1.54688 33.0137C1.54688 32.6738 1.5 32.3398 1.40625 32.0117C1.3125 31.6719 1.26562 31.3379 1.26562 31.0098C1.26562 30.7402 1.30078 30.4238 1.37109 30.0605C1.44141 29.6973 1.52344 29.3867 1.61719 29.1289C1.64062 29.0586 1.67578 28.9883 1.72266 28.918C1.76953 28.8477 1.80469 28.7656 1.82812 28.6719C1.88672 28.4375 1.91016 28.1914 1.89844 27.9336C1.88672 27.6641 1.9043 27.4062 1.95117 27.1602C1.98633 26.9375 2.04492 26.7266 2.12695 26.5273C2.2207 26.3164 2.2793 26.1055 2.30273 25.8945C2.33789 25.5898 2.35547 25.2793 2.35547 24.9629C2.35547 24.6348 2.4082 24.3184 2.51367 24.0137C2.63086 23.7676 2.79492 23.5449 3.00586 23.3457C3.22852 23.1348 3.38086 22.9414 3.46289 22.7656C3.5918 22.4609 3.73828 22.1562 3.90234 21.8516C4.06641 21.5469 4.16016 21.2246 4.18359 20.8848C4.41797 20.6738 4.7168 20.4512 5.08008 20.2168C5.44336 19.9824 5.80664 19.748 6.16992 19.5137C6.54492 19.2676 6.89062 19.0215 7.20703 18.7754C7.52344 18.5176 7.75195 18.2598 7.89258 18.002H8.0332C8.06836 18.002 8.21484 17.9609 8.47266 17.8789C8.73047 17.7852 9.01172 17.6855 9.31641 17.5801C9.62109 17.4629 9.90234 17.3574 10.1602 17.2637C10.4297 17.1582 10.5938 17.0938 10.6523 17.0703C10.6523 17.0352 10.6641 17.0117 10.6875 17C10.7109 16.9766 10.7344 16.9648 10.7578 16.9648C10.957 16.9648 11.25 16.9707 11.6367 16.9824C12.0234 16.9941 12.4219 17.0117 12.832 17.0352C13.2539 17.0469 13.6465 17.0703 14.0098 17.1055C14.3848 17.1289 14.6602 17.1523 14.8359 17.1758C14.9883 17.1992 15.1348 17.2461 15.2754 17.3164C15.4277 17.3867 15.5742 17.457 15.7148 17.5273C15.8555 17.5859 15.9961 17.6445 16.1367 17.7031C16.2891 17.75 16.4414 17.7676 16.5938 17.7559C16.7812 17.9902 16.9746 18.1543 17.1738 18.248C17.373 18.3301 17.6016 18.4414 17.8594 18.582C17.9531 18.6406 18.082 18.7637 18.2461 18.9512C18.4102 19.1387 18.5566 19.2793 18.6855 19.373C18.8145 19.4785 18.9785 19.5723 19.1777 19.6543C19.377 19.7363 19.5234 19.8477 19.6172 19.9883C19.6875 20.0938 19.7578 20.2344 19.8281 20.4102C19.9102 20.5859 19.9805 20.7734 20.0391 20.9727C20.0977 21.1602 20.1445 21.3477 20.1797 21.5352C20.2148 21.7109 20.2324 21.8691 20.2324 22.0098C20.2324 22.2676 20.1855 22.5312 20.0918 22.8008C20.0098 23.0703 19.8867 23.3164 19.7227 23.5391C19.5586 23.75 19.3535 23.9258 19.1074 24.0664C18.873 24.207 18.6094 24.2773 18.3164 24.2773C18.0234 24.2773 17.7832 24.2305 17.5957 24.1367C17.4082 24.043 17.2441 23.9258 17.1035 23.7852C16.9746 23.6328 16.8516 23.4629 16.7344 23.2754C16.6172 23.0762 16.4883 22.8711 16.3477 22.6602C16.2539 22.5078 16.1426 22.3965 16.0137 22.3262C15.8848 22.2559 15.7676 22.1738 15.6621 22.0801C15.5566 21.9629 15.4629 21.8516 15.3809 21.7461C15.3105 21.6289 15.2109 21.5352 15.082 21.4648C14.9766 21.418 14.8242 21.3828 14.625 21.3594C14.4375 21.3242 14.2324 21.3008 14.0098 21.2891C13.7988 21.2656 13.5879 21.2422 13.377 21.2188C13.166 21.1953 12.9902 21.1719 12.8496 21.1484C12.7207 21.1016 12.5918 21.0605 12.4629 21.0254C12.3457 20.9785 12.2227 20.9551 12.0938 20.9551C12.0234 20.9551 11.959 20.9609 11.9004 20.9727C11.8418 20.9844 11.7773 21.002 11.707 21.0254C11.6133 21.1191 11.5371 21.1543 11.4785 21.1309C11.4316 21.1074 11.3613 21.0957 11.2676 21.0957C11.127 21.0957 10.9863 21.1426 10.8457 21.2363C10.7168 21.3184 10.5234 21.3594 10.2656 21.3594H10.1953C10.0898 21.5234 9.94922 21.6582 9.77344 21.7637C9.59766 21.8691 9.41016 21.9688 9.21094 22.0625C9.02344 22.1562 8.83594 22.2559 8.64844 22.3613C8.47266 22.4668 8.32617 22.6016 8.20898 22.7656C8.15039 22.8594 8.11523 22.9531 8.10352 23.0469C8.0918 23.1406 8.05664 23.2344 7.99805 23.3281C7.83398 23.5859 7.65234 23.8379 7.45312 24.084C7.26562 24.3184 7.0957 24.5703 6.94336 24.8398C6.80273 25.1094 6.66211 25.373 6.52148 25.6309C6.38086 25.877 6.21094 26.1172 6.01172 26.3516C6.03516 26.4336 6.04688 26.5098 6.04688 26.5801C6.04688 26.6504 6.04688 26.7207 6.04688 26.791C6.04688 27.0371 6.02344 27.2598 5.97656 27.459C5.92969 27.6465 5.87109 27.8398 5.80078 28.0391C5.74219 28.2383 5.68945 28.4609 5.64258 28.707C5.5957 28.9531 5.57227 29.2402 5.57227 29.5684C5.57227 29.7676 5.53125 29.9316 5.44922 30.0605C5.36719 30.1895 5.32617 30.3242 5.32617 30.4648C5.32617 30.6055 5.33203 30.834 5.34375 31.1504C5.36719 31.4551 5.39648 31.7773 5.43164 32.1172C5.4668 32.4453 5.50781 32.7559 5.55469 33.0488C5.60156 33.3418 5.64844 33.5469 5.69531 33.6641C5.71875 33.7578 5.75391 33.8398 5.80078 33.9102C5.84766 33.9688 5.88281 34.0449 5.90625 34.1387C5.96484 34.4082 5.98828 34.6777 5.97656 34.9473C5.96484 35.2168 6.01172 35.4863 6.11719 35.7559L6.36328 36.002C6.42188 36.166 6.44531 36.3359 6.43359 36.5117C6.43359 36.6875 6.45117 36.8691 6.48633 37.0566C6.62695 37.1152 6.69727 37.1797 6.69727 37.25C6.69727 37.3203 6.69727 37.4082 6.69727 37.5137C6.69727 37.6191 6.74414 37.7363 6.83789 37.8652C6.93164 37.9941 7.03125 38.1348 7.13672 38.2871C7.25391 38.4277 7.35938 38.5801 7.45312 38.7441C7.55859 38.9082 7.61719 39.0781 7.62891 39.2539C7.99219 39.5234 8.27344 39.7695 8.47266 39.9922C8.68359 40.2031 8.88867 40.3906 9.08789 40.5547C9.29883 40.7188 9.53906 40.8594 9.80859 40.9766C10.0898 41.082 10.4941 41.1641 11.0215 41.2227C11.1152 41.2227 11.209 41.2402 11.3027 41.2754C11.3965 41.3105 11.4902 41.3281 11.584 41.3281C11.7363 41.3281 11.8711 41.2988 11.9883 41.2402C12.1055 41.1816 12.2344 41.1172 12.375 41.0469C12.5273 40.9766 12.709 40.9121 12.9199 40.8535C13.1309 40.7949 13.4062 40.7656 13.7461 40.7656C13.875 40.7656 13.9512 40.7188 13.9746 40.625C13.998 40.5312 14.0566 40.4551 14.1504 40.3965C14.1973 40.373 14.2793 40.3438 14.3965 40.3086C14.5254 40.2734 14.666 40.2324 14.8184 40.1855C14.9824 40.1387 15.1465 40.0859 15.3105 40.0273C15.4863 39.957 15.6387 39.8867 15.7676 39.8164C16.0723 39.6406 16.3418 39.4297 16.5762 39.1836C16.8223 38.9375 17.0918 38.7324 17.3848 38.5684C17.4902 38.1934 17.6484 37.8535 17.8594 37.5488C18.082 37.2324 18.2754 36.9102 18.4395 36.582H18.5449C18.6504 36.582 18.75 36.5586 18.8438 36.5117C18.9492 36.4648 19.0488 36.4121 19.1426 36.3535C19.2363 36.2832 19.3301 36.2246 19.4238 36.1777C19.5293 36.1309 19.6289 36.1074 19.7227 36.1074C19.8281 36.1074 19.916 36.125 19.9863 36.1602C20.0684 36.1953 20.1504 36.2363 20.2324 36.2832C20.3145 36.3184 20.3965 36.3535 20.4785 36.3887C20.5723 36.4238 20.6719 36.4414 20.7773 36.4414C20.9414 36.7461 21.0762 37.0684 21.1816 37.4082C21.2871 37.748 21.3398 38.0996 21.3398 38.4629ZM39.498 41.4863C39.4629 41.6621 39.416 41.8145 39.3574 41.9434C39.3105 42.0605 39.2637 42.1836 39.2168 42.3125C39.1816 42.4297 39.1523 42.5586 39.1289 42.6992C39.1172 42.8398 39.123 43.0098 39.1465 43.209C39.041 43.2676 38.9648 43.3496 38.918 43.4551C38.8711 43.5488 38.8301 43.6543 38.7949 43.7715C38.7715 43.877 38.7422 43.9883 38.707 44.1055C38.6836 44.2227 38.6367 44.3223 38.5664 44.4043C38.3086 44.3223 38.0508 44.2871 37.793 44.2988C37.5352 44.3105 37.2773 44.3164 37.0195 44.3164C36.75 44.3164 36.5449 44.293 36.4043 44.2461C36.2637 44.2109 36.0938 44.1055 35.8945 43.9297C35.7539 43.7891 35.6133 43.7305 35.4727 43.7539C35.3438 43.7773 35.2207 43.7832 35.1035 43.7715C34.998 43.7598 34.9102 43.6836 34.8398 43.543C34.7812 43.3906 34.752 43.0859 34.752 42.6289C34.752 42.5586 34.7461 42.4824 34.7344 42.4004C34.7227 42.3184 34.6816 42.2422 34.6113 42.1719C34.3066 42.2422 34.0254 42.3711 33.7676 42.5586C33.5098 42.7344 33.2637 42.9219 33.0293 43.1211C32.7949 43.3086 32.5605 43.4727 32.3262 43.6133C32.0918 43.7539 31.8457 43.8125 31.5879 43.7891C31.459 43.918 31.3359 44.0469 31.2188 44.1758C31.1016 44.3047 30.9609 44.416 30.7969 44.5098C30.7148 44.5449 30.5742 44.5859 30.375 44.6328C30.1875 44.6797 29.9883 44.7207 29.7773 44.7559C29.5664 44.791 29.3613 44.8203 29.1621 44.8438C28.9629 44.8789 28.8223 44.8965 28.7402 44.8965C28.4941 44.8965 28.207 44.8145 27.8789 44.6504C27.5508 44.498 27.2227 44.334 26.8945 44.1582C26.5781 43.9824 26.2793 43.8301 25.998 43.7012C25.7168 43.5605 25.4883 43.5137 25.3125 43.5605C25.1836 43.4551 25.0898 43.3262 25.0312 43.1738C24.9727 43.0098 24.8789 42.8633 24.75 42.7344C24.5977 42.6055 24.4336 42.5 24.2578 42.418C24.082 42.3359 23.9297 42.2129 23.8008 42.0488C23.7188 41.9316 23.6543 41.8086 23.6074 41.6797C23.5723 41.5391 23.5312 41.3984 23.4844 41.2578C23.4492 41.1055 23.4023 40.959 23.3438 40.8184C23.2969 40.6777 23.2207 40.5488 23.1152 40.4316C23.1621 40.2324 23.1914 39.9863 23.2031 39.6934C23.2148 39.4004 23.2324 39.1074 23.2559 38.8145C23.291 38.5098 23.3438 38.2285 23.4141 37.9707C23.4961 37.7129 23.625 37.5254 23.8008 37.4082V37.2676C23.8008 36.9043 23.8594 36.6113 23.9766 36.3887C24.0938 36.1543 24.2402 35.9492 24.416 35.7734C24.5918 35.5859 24.7852 35.4102 24.9961 35.2461C25.207 35.082 25.4004 34.8828 25.5762 34.6484C25.6816 34.5664 25.793 34.5371 25.9102 34.5605C26.0273 34.5723 26.1445 34.5488 26.2617 34.4902L26.3672 34.2793C26.4258 34.2559 26.4785 34.25 26.5254 34.2617C26.5723 34.2734 26.6133 34.2793 26.6484 34.2793C26.707 34.2793 26.7656 34.2559 26.8242 34.209C26.8828 34.1621 26.9414 34.1152 27 34.0684C27.0586 34.0098 27.1172 33.957 27.1758 33.9102C27.2461 33.8633 27.3223 33.8398 27.4043 33.8398C27.4395 33.8398 27.4805 33.8516 27.5273 33.875C27.5742 33.8867 27.6152 33.9043 27.6504 33.9277C27.7324 33.7988 27.8262 33.6875 27.9316 33.5938C28.0488 33.4883 28.166 33.3887 28.2832 33.2949C28.4004 33.2012 28.5117 33.1074 28.6172 33.0137C28.7344 32.9082 28.834 32.791 28.916 32.6621C28.9629 32.6855 29.0332 32.6973 29.127 32.6973C29.2324 32.6973 29.3145 32.6738 29.373 32.627C29.4316 32.5684 29.4902 32.5098 29.5488 32.4512C29.6191 32.3809 29.6953 32.3223 29.7773 32.2754C29.8594 32.2168 29.9824 32.1875 30.1465 32.1875C30.1816 32.1875 30.252 32.1641 30.3574 32.1172C30.4629 32.0703 30.5742 32.0176 30.6914 31.959C30.8086 31.8887 30.9199 31.8242 31.0254 31.7656C31.1309 31.6953 31.207 31.6426 31.2539 31.6074L31.4473 31.5723C31.5527 31.5723 31.6523 31.5957 31.7461 31.6426C31.8398 31.6777 31.9395 31.707 32.0449 31.7305C32.1973 31.5781 32.3496 31.4316 32.502 31.291C32.6543 31.1504 32.7773 30.9805 32.8711 30.7812C33.0234 30.7344 33.1992 30.6465 33.3984 30.5176C33.5977 30.3887 33.7852 30.2422 33.9609 30.0781C34.1484 29.9141 34.3008 29.7383 34.418 29.5508C34.5469 29.3516 34.6113 29.1641 34.6113 28.9883C34.6113 28.8008 34.5586 28.6191 34.4531 28.4434C34.3594 28.2676 34.248 28.0977 34.1191 27.9336C33.9902 27.7578 33.8613 27.582 33.7324 27.4062C33.6035 27.2305 33.5098 27.0488 33.4512 26.8613H33.3809C33.2402 26.8613 33.1113 26.7969 32.9941 26.668C32.8887 26.5273 32.7656 26.4395 32.625 26.4043C32.5078 26.3574 32.3848 26.334 32.2559 26.334C32.127 26.334 31.998 26.334 31.8691 26.334C31.7402 26.334 31.6113 26.3223 31.4824 26.2988C31.3652 26.2754 31.2539 26.2227 31.1484 26.1406C30.9141 26.1875 30.7266 26.2754 30.5859 26.4043C30.4453 26.5215 30.3047 26.6445 30.1641 26.7734C30.0234 26.9023 29.8594 27.0137 29.6719 27.1074C29.4844 27.1895 29.2324 27.2188 28.916 27.1953C28.7051 27.6289 28.5117 28.0801 28.3359 28.5488C28.1719 29.0176 27.9434 29.4512 27.6504 29.8496C27.5801 30.1074 27.5098 30.3652 27.4395 30.623C27.3809 30.8691 27.2637 31.0801 27.0879 31.2559C26.8535 31.3262 26.6133 31.3613 26.3672 31.3613C26.1094 31.3613 25.8223 31.3145 25.5059 31.2207C25.2012 31.1152 24.9141 30.9746 24.6445 30.7988C24.375 30.623 24.1465 30.418 23.959 30.1836C23.7832 29.9375 23.6953 29.6738 23.6953 29.3926C23.6953 29.0879 23.7539 28.7891 23.8711 28.4961C24 28.1914 24.0645 27.875 24.0645 27.5469C24.2285 27.4883 24.3574 27.3945 24.4512 27.2656C24.5449 27.1367 24.627 27.002 24.6973 26.8613C24.7793 26.709 24.8613 26.5684 24.9434 26.4395C25.0371 26.3105 25.1602 26.2109 25.3125 26.1406V26C25.3125 25.8945 25.3418 25.8184 25.4004 25.7715C25.459 25.7129 25.4707 25.6074 25.4355 25.4551C25.9746 25.1387 26.4023 24.7109 26.7188 24.1719C26.918 24.0781 27.1289 24.002 27.3516 23.9434C27.5742 23.8848 27.7852 23.8027 27.9844 23.6973C28.1602 23.627 28.3242 23.5273 28.4766 23.3984C28.6406 23.2695 28.8223 23.1758 29.0215 23.1172C29.3145 23.0586 29.6016 23.0527 29.8828 23.0996C30.1758 23.1348 30.457 23.1523 30.7266 23.1523C30.9609 23.1523 31.1602 23.1055 31.3242 23.0117C31.5 22.918 31.7051 22.8711 31.9395 22.8711C32.1738 22.8711 32.4082 22.8887 32.6426 22.9238C32.877 22.9473 33.1113 22.9766 33.3457 23.0117C33.4512 23.0352 33.5449 23.0762 33.627 23.1348C33.7207 23.1816 33.8203 23.2227 33.9258 23.2578C34.2891 23.3281 34.5527 23.3691 34.7168 23.3809C34.8809 23.3809 35.0215 23.4043 35.1387 23.4512C35.2559 23.498 35.3789 23.5918 35.5078 23.7324C35.6367 23.8613 35.8418 24.0898 36.123 24.418H36.1934C36.3457 24.418 36.5039 24.4766 36.668 24.5938C36.832 24.6992 36.9844 24.834 37.125 24.998C37.2773 25.1504 37.4062 25.3145 37.5117 25.4902C37.6172 25.6543 37.6934 25.8008 37.7402 25.9297C37.8105 26.1055 37.8516 26.2988 37.8633 26.5098C37.875 26.709 37.916 26.8965 37.9863 27.0723C38.0566 27.2363 38.1445 27.3887 38.25 27.5293C38.3555 27.6699 38.4551 27.8105 38.5488 27.9512C38.6543 28.0918 38.7422 28.2383 38.8125 28.3906C38.8945 28.543 38.9355 28.707 38.9355 28.8828C38.9355 29.1172 38.9062 29.3457 38.8477 29.5684C38.8008 29.7793 38.7773 29.9961 38.7773 30.2188C38.7773 30.418 38.8184 30.6113 38.9004 30.7988C38.9941 30.9746 39.041 31.1621 39.041 31.3613C39.041 31.6191 38.9941 31.8652 38.9004 32.0996C38.8184 32.334 38.7773 32.5801 38.7773 32.8379C38.7773 33.1777 38.8184 33.5176 38.9004 33.8574C38.9941 34.1973 39.1113 34.5312 39.252 34.8594C39.1816 35.0703 39.1465 35.2988 39.1465 35.5449C39.1465 35.8848 39.1816 36.2188 39.252 36.5469C39.3223 36.8633 39.3574 37.1855 39.3574 37.5137C39.3574 37.6777 39.3398 37.8301 39.3047 37.9707C39.2695 38.1113 39.2285 38.252 39.1816 38.3926C39.1348 38.5332 39.0938 38.6738 39.0586 38.8145C39.0234 38.9551 39.0059 39.1133 39.0059 39.2891C39.0059 39.6641 39.0527 40.0332 39.1465 40.3965C39.2402 40.7598 39.3574 41.123 39.498 41.4863ZM35.332 35.7559C35.332 35.5332 35.3145 35.3223 35.2793 35.123C35.2441 34.9238 35.2266 34.7129 35.2266 34.4902C35.2266 34.2441 35.1855 34.0625 35.1035 33.9453C35.0215 33.8281 34.8574 33.7812 34.6113 33.8047H34.3828C34.2188 33.957 34.0664 34.1211 33.9258 34.2969C33.7969 34.4727 33.6387 34.625 33.4512 34.7539C33.2871 34.8594 33.1055 34.9355 32.9062 34.9824C32.707 35.0293 32.543 35.1406 32.4141 35.3164H32.3438C32.1797 35.3164 32.0391 35.3457 31.9219 35.4043C31.8047 35.4512 31.6875 35.5039 31.5703 35.5625C31.4531 35.6094 31.3242 35.6504 31.1836 35.6855C31.0547 35.7207 30.8906 35.7207 30.6914 35.6855C30.5039 35.9785 30.3223 36.2832 30.1465 36.5996C29.9707 36.9043 29.7188 37.1387 29.3906 37.3027L29.0918 37.2676C28.8809 37.2559 28.6641 37.2793 28.4414 37.3379C28.2305 37.3965 28.0371 37.4844 27.8613 37.6016C27.6973 37.7188 27.5625 37.8652 27.457 38.041C27.3516 38.2168 27.2988 38.4277 27.2988 38.6738C27.2988 38.9902 27.3457 39.2305 27.4395 39.3945C27.5332 39.5469 27.6504 39.6758 27.791 39.7812C27.9316 39.875 28.084 39.9629 28.248 40.0449C28.4121 40.127 28.5645 40.2559 28.7051 40.4316C28.834 40.4551 28.9688 40.4609 29.1094 40.4492C29.25 40.4375 29.3906 40.4316 29.5312 40.4316C29.625 40.4316 29.7188 40.4375 29.8125 40.4492C29.918 40.4492 30.0059 40.4785 30.0762 40.5371C30.2168 40.4082 30.334 40.3145 30.4277 40.2559C30.5215 40.1855 30.6797 40.1621 30.9023 40.1855C31.1719 39.8457 31.5059 39.582 31.9043 39.3945C32.3027 39.207 32.7012 39.0488 33.0996 38.9199C33.123 38.791 33.1758 38.6797 33.2578 38.5859C33.3516 38.4922 33.4512 38.4102 33.5566 38.3398C33.6621 38.2578 33.7676 38.1875 33.873 38.1289C33.9785 38.0586 34.0664 37.9766 34.1367 37.8828C34.207 37.8125 34.3066 37.6777 34.4355 37.4785C34.5762 37.2793 34.7109 37.0684 34.8398 36.8457C34.9805 36.6113 35.0977 36.3945 35.1914 36.1953C35.2852 35.9961 35.332 35.8496 35.332 35.7559ZM57.3398 25.4199C57.3398 25.6777 57.2637 25.9062 57.1113 26.1055C56.9707 26.293 56.8535 26.498 56.7598 26.7207C56.5488 26.7559 56.3613 26.8203 56.1973 26.9141C56.0449 26.9961 55.8867 27.0898 55.7227 27.1953C55.5703 27.2891 55.4004 27.3711 55.2129 27.4414C55.0254 27.5117 54.8086 27.5469 54.5625 27.5469C54.3281 27.5469 54.0996 27.5234 53.877 27.4766C53.666 27.4297 53.4492 27.4062 53.2266 27.4062C52.9336 27.4062 52.6523 27.4648 52.3828 27.582C52.125 27.6992 51.8438 27.7578 51.5391 27.7578C51.2461 27.7578 50.9473 27.7285 50.6426 27.6699C50.3496 27.6113 50.0625 27.582 49.7812 27.582C49.6875 27.582 49.5996 27.5879 49.5176 27.5996C49.4473 27.6113 49.377 27.6172 49.3066 27.6172C49.2012 27.8398 49.1543 28.0684 49.166 28.3027C49.1895 28.5371 49.2012 28.7656 49.2012 28.9883C49.2012 29.3867 49.1602 29.7852 49.0781 30.1836C49.0078 30.582 48.9727 30.9863 48.9727 31.3965C48.9727 31.7246 49.0078 32.0469 49.0781 32.3633C49.1602 32.668 49.2012 32.9844 49.2012 33.3125C49.2012 33.4883 49.1777 33.6523 49.1309 33.8047C49.084 33.9453 49.0254 34.0859 48.9551 34.2266C48.8965 34.3672 48.8438 34.5078 48.7969 34.6484C48.75 34.7891 48.7266 34.9414 48.7266 35.1055C48.7266 35.2109 48.7441 35.3223 48.7793 35.4395C48.8145 35.5449 48.832 35.6504 48.832 35.7559L48.7266 35.8613C48.7266 35.9082 48.7383 35.9492 48.7617 35.9844C48.7852 36.0078 48.8145 36.043 48.8496 36.0898C48.8848 36.125 48.9141 36.1719 48.9375 36.2305C48.9609 36.2891 48.9727 36.3711 48.9727 36.4766C48.9727 36.7812 48.9492 37.0859 48.9023 37.3906C48.8555 37.6953 48.832 38 48.832 38.3047C48.832 38.3633 48.8438 38.4922 48.8672 38.6914C48.8906 38.8789 48.9199 39.1016 48.9551 39.3594C49.002 39.6172 49.043 39.8867 49.0781 40.168C49.125 40.4492 49.1719 40.7129 49.2188 40.959C49.2656 41.2051 49.3066 41.416 49.3418 41.5918C49.3887 41.7676 49.4238 41.873 49.4473 41.9082C49.541 42.0371 49.6523 42.1426 49.7812 42.2246C49.9102 42.2949 50.0273 42.3828 50.1328 42.4883C50.1797 42.5117 50.25 42.5234 50.3438 42.5234C50.4727 42.5234 50.5898 42.5059 50.6953 42.4707C50.8125 42.4355 50.9355 42.4062 51.0645 42.3828C51.1934 42.3477 51.3223 42.3301 51.4512 42.3301C51.5918 42.3301 51.7266 42.3125 51.8555 42.2773C51.9961 42.2188 52.1191 42.1426 52.2246 42.0488C52.3301 41.9551 52.4297 41.8672 52.5234 41.7852C52.6289 41.6914 52.7402 41.6152 52.8574 41.5566C52.9746 41.4863 53.1094 41.4512 53.2617 41.4512C53.4609 41.0879 53.6777 40.7422 53.9121 40.4141C54.1582 40.0859 54.3633 39.7344 54.5273 39.3594C54.5742 39.3828 54.6211 39.3945 54.668 39.3945C54.7617 39.3945 54.8379 39.3711 54.8965 39.3242C54.9668 39.2773 55.0488 39.2539 55.1426 39.2539C55.1543 39.2539 55.2129 39.2715 55.3184 39.3066C55.4238 39.3301 55.5352 39.3652 55.6523 39.4121C55.7695 39.4473 55.8809 39.4883 55.9863 39.5352C56.0918 39.5703 56.1562 39.5938 56.1797 39.6055C56.25 39.6641 56.3027 39.7695 56.3379 39.9219C56.3848 40.0742 56.4375 40.1973 56.4961 40.291C56.5547 40.3848 56.6074 40.4551 56.6543 40.502C56.7012 40.5488 56.7363 40.6016 56.7598 40.6602C56.7949 40.707 56.8184 40.7656 56.8301 40.8359C56.8535 40.9062 56.8652 41.0117 56.8652 41.1523C56.8652 41.5156 56.7891 41.8613 56.6367 42.1895C56.4961 42.5059 56.3789 42.834 56.2852 43.1738C56.1328 43.2324 56.0098 43.3203 55.916 43.4375C55.8223 43.543 55.7285 43.6543 55.6348 43.7715C55.5527 43.8887 55.4531 43.9941 55.3359 44.0879C55.2305 44.1816 55.0781 44.2344 54.8789 44.2461C54.7852 44.5156 54.6328 44.7441 54.4219 44.9316C54.2109 45.1191 53.9824 45.2773 53.7363 45.4062C53.666 45.4766 53.5664 45.5117 53.4375 45.5117C53.3672 45.5117 53.2852 45.4941 53.1914 45.459C53.1094 45.4238 53.0508 45.3711 53.0156 45.3008C52.8633 45.3594 52.752 45.418 52.6816 45.4766C52.623 45.5469 52.5703 45.6172 52.5234 45.6875C52.4766 45.7695 52.4238 45.8457 52.3652 45.916C52.3184 45.9863 52.2363 46.0508 52.1191 46.1094C52.0137 46.168 51.8555 46.2148 51.6445 46.25C51.4453 46.2852 51.1699 46.3027 50.8184 46.3027C50.6543 46.3027 50.4902 46.3086 50.3262 46.3203C50.1738 46.3438 50.0273 46.3848 49.8867 46.4434C49.6172 46.2559 49.2832 46.1387 48.8848 46.0918C48.4863 46.0566 48.123 46.0215 47.7949 45.9863C47.8184 45.8691 47.7832 45.8105 47.6895 45.8105C47.5957 45.8105 47.5195 45.7812 47.4609 45.7227C47.332 45.6523 47.2266 45.5469 47.1445 45.4062C47.0625 45.2773 46.9277 45.1953 46.7402 45.1602C46.7285 45.0195 46.6816 44.8848 46.5996 44.7559C46.5176 44.6387 46.4238 44.5215 46.3184 44.4043C46.2246 44.2871 46.1309 44.1641 46.0371 44.0352C45.9434 43.918 45.8789 43.7891 45.8438 43.6484C45.7383 43.3086 45.6094 42.9688 45.457 42.6289C45.3164 42.2773 45.2051 41.9199 45.123 41.5566C45.0879 41.3926 45.0527 41.1816 45.0176 40.9238C44.9941 40.6543 44.9707 40.373 44.9473 40.0801C44.9355 39.7871 44.9238 39.5059 44.9121 39.2363C44.9121 38.9668 44.9121 38.7441 44.9121 38.5684C44.9121 38.2754 44.9473 38 45.0176 37.7422C45.0879 37.4727 45.123 37.1973 45.123 36.916C45.123 36.541 45.0938 36.1719 45.0352 35.8086C44.9766 35.4453 44.9355 35.082 44.9121 34.7188C44.8887 34.5195 44.8887 34.3203 44.9121 34.1211C44.9355 33.9219 44.9473 33.7227 44.9473 33.5234C44.9473 33.2188 44.9004 32.9551 44.8066 32.7324C44.877 32.6855 44.9355 32.6152 44.9824 32.5215C45.041 32.4277 45.0879 32.3281 45.123 32.2227C45.1582 32.1055 45.1816 31.9883 45.1934 31.8711C45.2168 31.7539 45.2285 31.6543 45.2285 31.5723L45.123 31.4668C45.1465 31.291 45.1641 31.1152 45.1758 30.9395C45.1875 30.752 45.1934 30.5703 45.1934 30.3945C45.1934 30.207 45.1699 30.0312 45.123 29.8672C45.0879 29.6914 45.0176 29.5332 44.9121 29.3926C44.8887 29.2051 44.9062 29.0293 44.9648 28.8652C45.0234 28.7012 45.0527 28.5371 45.0527 28.373L45.0176 28.0918C44.748 28.0566 44.4668 28.0508 44.1738 28.0742C43.8809 28.0859 43.5996 28.0918 43.3301 28.0918C43.1426 28.0918 42.9551 28.0918 42.7676 28.0918C42.5801 28.0801 42.4043 28.0449 42.2402 27.9863C42.0645 27.7285 41.8828 27.4766 41.6953 27.2305C41.5078 26.9727 41.4141 26.6797 41.4141 26.3516C41.4141 25.9766 41.5078 25.6484 41.6953 25.3672C41.8828 25.0859 42.0645 24.793 42.2402 24.4883C42.3809 24.4766 42.5215 24.4414 42.6621 24.3828C42.8027 24.3242 42.9375 24.2598 43.0664 24.1895C43.207 24.1191 43.3418 24.0547 43.4707 23.9961C43.5996 23.9375 43.7344 23.9082 43.875 23.9082C44.1211 23.9082 44.3555 23.9727 44.5781 24.1016C44.8008 24.2188 45.0469 24.2773 45.3164 24.2773H45.4922C45.5508 24.1484 45.6035 24.0137 45.6504 23.873C45.709 23.7324 45.7266 23.5918 45.7031 23.4512C45.6445 23.4043 45.5918 23.3574 45.5449 23.3105C45.5098 23.252 45.4922 23.1875 45.4922 23.1172C45.4922 23.0586 45.5098 23.0117 45.5449 22.9766C45.5801 22.9297 45.5977 22.8594 45.5977 22.7656C45.5977 22.4961 45.5625 22.2266 45.4922 21.957C45.4219 21.6758 45.3867 21.3887 45.3867 21.0957C45.3867 20.8613 45.4219 20.5742 45.4922 20.2344C45.5742 19.8945 45.6738 19.5547 45.791 19.2148C45.9199 18.8633 46.0664 18.5352 46.2305 18.2305C46.3945 17.9258 46.5645 17.6973 46.7402 17.5449C46.8926 17.5215 47.0391 17.5098 47.1797 17.5098C47.3203 17.5098 47.4668 17.5098 47.6191 17.5098C47.9707 17.5098 48.2695 17.5859 48.5156 17.7383C48.7617 17.8906 48.9609 18.0898 49.1133 18.3359C49.2656 18.582 49.377 18.8633 49.4473 19.1797C49.5176 19.4844 49.5527 19.7891 49.5527 20.0938C49.5527 20.293 49.5 20.5391 49.3945 20.832C49.2891 21.125 49.2363 21.4414 49.2363 21.7812C49.2363 22.0508 49.248 22.332 49.2715 22.625C49.2949 22.9062 49.3066 23.1816 49.3066 23.4512C49.3652 23.4512 49.4238 23.4453 49.4824 23.4336C49.541 23.4219 49.5996 23.416 49.6582 23.416C49.8926 23.416 50.1152 23.457 50.3262 23.5391C50.5371 23.6211 50.7598 23.6621 50.9941 23.6621C51.1582 23.6621 51.293 23.627 51.3984 23.5566C51.4922 23.5566 51.5684 23.5801 51.627 23.627C51.6855 23.6621 51.7324 23.709 51.7676 23.7676C51.8145 23.8145 51.8613 23.8672 51.9082 23.9258C51.9668 23.9727 52.0371 24.002 52.1191 24.0137C52.2949 23.9434 52.459 23.8496 52.6113 23.7324C52.7754 23.6152 52.957 23.5215 53.1562 23.4512H56.1797C56.2734 23.5215 56.3555 23.5977 56.4258 23.6797C56.4961 23.7617 56.6074 23.8027 56.7598 23.8027C56.7715 23.9434 56.8066 24.0781 56.8652 24.207C56.9355 24.3359 57.0059 24.4648 57.0762 24.5938C57.1465 24.7227 57.2051 24.8574 57.252 24.998C57.3105 25.127 57.3398 25.2676 57.3398 25.4199ZM64.4238 21.7109C64.4238 22.4844 64.2539 23.1992 63.9141 23.8555C63.5859 24.5 63.1582 25.0977 62.6309 25.6484C62.3965 25.8828 62.1387 26.0996 61.8574 26.2988C61.5879 26.498 61.3535 26.7324 61.1543 27.002H61.0488C60.8848 27.002 60.7266 27.0195 60.5742 27.0547C60.4336 27.0898 60.293 27.1074 60.1523 27.1074C59.9883 27.1074 59.8535 27.0723 59.748 27.002C59.6191 26.8262 59.4961 26.6328 59.3789 26.4219C59.2617 26.2109 59.2031 25.9883 59.2031 25.7539C59.2031 25.4258 59.2793 25.1562 59.4316 24.9453C59.584 24.7344 59.7539 24.541 59.9414 24.3652C60.1289 24.1895 60.2988 24.002 60.4512 23.8027C60.6035 23.6035 60.6797 23.3516 60.6797 23.0469C60.6797 22.8359 60.6504 22.6719 60.5918 22.5547C60.5449 22.4258 60.4805 22.3145 60.3984 22.2207C60.3164 22.127 60.2227 22.0332 60.1172 21.9395C60.0234 21.8457 59.9355 21.7227 59.8535 21.5703V21.2188C59.8301 20.8555 59.8711 20.5391 59.9766 20.2695C60.0938 20 60.2109 19.7012 60.3281 19.373C60.6914 19.1973 61.0137 19.0508 61.2949 18.9336C61.5762 18.8164 61.9219 18.7578 62.332 18.7578C62.4492 18.7578 62.5781 18.793 62.7188 18.8633C62.8711 18.9219 63.0176 18.998 63.1582 19.0918C63.2988 19.1855 63.4277 19.291 63.5449 19.4082C63.6621 19.5137 63.75 19.6133 63.8086 19.707C63.8672 19.8008 63.9082 19.9355 63.9316 20.1113C63.9668 20.2754 64.002 20.416 64.0371 20.5332C64.0957 20.6738 64.1484 20.7793 64.1953 20.8496C64.2422 20.9199 64.2832 20.9902 64.3184 21.0605C64.3535 21.1191 64.377 21.1953 64.3887 21.2891C64.4121 21.3828 64.4238 21.5234 64.4238 21.7109ZM83.3555 30.7461C83.3555 31.0391 83.3145 31.3672 83.2324 31.7305C83.1504 32.0938 83.0215 32.4395 82.8457 32.7676C82.6816 33.084 82.4707 33.3535 82.2129 33.5762C81.9551 33.7871 81.6504 33.8926 81.2988 33.8926C80.9941 33.8926 80.7012 33.8164 80.4199 33.6641C80.1387 33.5 79.8926 33.3066 79.6816 33.084C79.5645 32.8379 79.4941 32.5859 79.4707 32.3281C79.4473 32.0586 79.3594 31.8066 79.207 31.5723C79.1836 31.5488 79.1719 31.4902 79.1719 31.3965C79.1719 31.2676 79.1953 31.1445 79.2422 31.0273C79.2891 30.9102 79.3125 30.7695 79.3125 30.6055C79.3125 30.4297 79.3359 30.2598 79.3828 30.0957C79.4297 29.9199 79.4531 29.7324 79.4531 29.5332C79.4531 29.4395 79.3828 29.2695 79.2422 29.0234C79.1133 28.7773 78.9609 28.5254 78.7852 28.2676C78.6094 27.998 78.4336 27.7578 78.2578 27.5469C78.0938 27.3242 77.9766 27.1953 77.9062 27.1602C77.8711 27.1367 77.8301 27.1367 77.7832 27.1602C77.7363 27.1836 77.6836 27.1953 77.625 27.1953L77.5898 27.1602L77.4844 26.9316C77.1914 26.8145 76.9219 26.7324 76.6758 26.6855C76.4414 26.627 76.207 26.5859 75.9727 26.5625C75.7383 26.5391 75.498 26.5273 75.252 26.5273C75.0059 26.5156 74.7422 26.498 74.4609 26.4746C74.2969 26.4512 74.1328 26.4277 73.9688 26.4043C73.8047 26.3691 73.6289 26.3516 73.4414 26.3516C73.3242 26.3516 73.1602 26.3926 72.9492 26.4746C72.7383 26.5566 72.5215 26.6621 72.2988 26.791C72.0879 26.9082 71.8887 27.0312 71.7012 27.1602C71.5137 27.2891 71.3906 27.4062 71.332 27.5117C71.2617 27.5938 71.1855 27.7637 71.1035 28.0215C71.0332 28.2793 70.9629 28.5605 70.8926 28.8652C70.8223 29.1582 70.7578 29.4453 70.6992 29.7266C70.6523 30.0078 70.623 30.207 70.6113 30.3242C70.6699 30.4648 70.752 30.5938 70.8574 30.7109C70.9629 30.8164 71.0684 30.9219 71.1738 31.0273C71.291 31.1328 71.3906 31.2441 71.4727 31.3613C71.5664 31.4785 71.625 31.625 71.6484 31.8008C71.8828 31.8594 72.0762 31.9414 72.2285 32.0469C72.3926 32.1406 72.5508 32.2344 72.7031 32.3281C72.8672 32.4102 73.043 32.4805 73.2305 32.5391C73.4297 32.5859 73.6816 32.5801 73.9863 32.5215C74.1387 32.6504 74.2969 32.7734 74.4609 32.8906C74.6367 33.0078 74.7891 33.1484 74.918 33.3125C74.9766 33.2539 75.0469 33.2246 75.1289 33.2246C75.2109 33.2129 75.2988 33.207 75.3926 33.207H75.832C75.9844 33.3008 76.1484 33.377 76.3242 33.4355C76.5117 33.4824 76.6934 33.5293 76.8691 33.5762C77.0566 33.6113 77.2383 33.6523 77.4141 33.6992C77.5898 33.7461 77.7539 33.8223 77.9062 33.9277C78.1406 34.0566 78.3281 34.2383 78.4688 34.4727C78.6094 34.6953 78.7734 34.8945 78.9609 35.0703C79.0312 35.0469 79.0898 35.0293 79.1367 35.0176C79.1953 35.0059 79.2539 35 79.3125 35C79.4883 35 79.6406 35.0469 79.7695 35.1406C79.8984 35.2344 80.0215 35.3398 80.1387 35.457C80.2559 35.5625 80.373 35.6738 80.4902 35.791C80.6191 35.8965 80.7656 35.9668 80.9297 36.002C80.9766 36.166 81.0352 36.3301 81.1055 36.4941C81.1758 36.6582 81.2754 36.7988 81.4043 36.916C81.3809 37.1621 81.3809 37.4141 81.4043 37.6719C81.4277 37.918 81.4395 38.1582 81.4395 38.3926C81.4395 38.5684 81.416 38.7383 81.3691 38.9023C81.3223 39.0547 81.2988 39.207 81.2988 39.3594C81.2988 39.4883 81.3223 39.6172 81.3691 39.7461C81.416 39.875 81.4688 40.0098 81.5273 40.1504C81.5859 40.291 81.6387 40.4316 81.6855 40.5723C81.7324 40.7012 81.7617 40.8359 81.7734 40.9766C81.7266 41.1406 81.6738 41.2812 81.6152 41.3984C81.5684 41.5156 81.5215 41.6328 81.4746 41.75C81.4395 41.8672 81.4102 41.9902 81.3867 42.1191C81.375 42.248 81.3809 42.4062 81.4043 42.5938C81.1816 42.8633 81.0059 43.1562 80.877 43.4727C80.748 43.7891 80.5781 44.082 80.3672 44.3516L80.1387 44.4746V44.6855L79.8926 44.8262C79.834 44.9668 79.793 45.0605 79.7695 45.1074C79.7461 45.1543 79.7168 45.1836 79.6816 45.1953C79.6582 45.2188 79.6172 45.2422 79.5586 45.2656C79.5 45.2891 79.418 45.3359 79.3125 45.4062C79.207 45.4766 79.1191 45.5703 79.0488 45.6875C78.9785 45.8047 78.8789 45.9043 78.75 45.9863C78.5625 46.0918 78.3516 46.1504 78.1172 46.1621C77.8945 46.1855 77.6836 46.2441 77.4844 46.3379C77.2969 46.4082 77.1211 46.5137 76.957 46.6543C76.793 46.7949 76.6172 46.8828 76.4297 46.918C76.2188 46.9531 75.9902 46.959 75.7441 46.9355C75.5098 46.9238 75.2871 46.918 75.0762 46.918C74.877 46.918 74.6836 46.9355 74.4961 46.9707C74.3086 47.0059 74.1152 47.0234 73.916 47.0234C73.6699 47.0234 73.418 47 73.1602 46.9531C72.9023 46.9062 72.6445 46.8535 72.3867 46.7949C72.1406 46.7363 71.8887 46.6836 71.6309 46.6367C71.373 46.5898 71.1152 46.5605 70.8574 46.5488C70.7754 46.4316 70.6816 46.3438 70.5762 46.2852C70.4707 46.2383 70.3594 46.2031 70.2422 46.1797C70.125 46.168 70.0078 46.1504 69.8906 46.127C69.7734 46.1035 69.6621 46.0566 69.5566 45.9863C69.416 45.8809 69.2812 45.7637 69.1523 45.6348C69.0352 45.5059 68.9121 45.377 68.7832 45.248C68.6543 45.1191 68.5195 44.9961 68.3789 44.8789C68.25 44.7617 68.1035 44.6621 67.9395 44.5801C67.9277 44.4746 67.875 44.293 67.7812 44.0352C67.6992 43.7891 67.6055 43.5312 67.5 43.2617C67.4062 42.9922 67.3184 42.7344 67.2363 42.4883C67.1543 42.2305 67.1133 42.0488 67.1133 41.9434C67.1133 41.6973 67.1309 41.4453 67.166 41.1875C67.2012 40.9297 67.2188 40.666 67.2188 40.3965C67.2188 40.2207 67.2832 40.0449 67.4121 39.8691C67.541 39.6816 67.6992 39.5176 67.8867 39.377C68.0742 39.2246 68.2734 39.1074 68.4844 39.0254C68.6953 38.9316 68.877 38.8848 69.0293 38.8848C69.3457 38.8848 69.6445 38.9609 69.9258 39.1133C70.2188 39.2656 70.4941 39.4297 70.752 39.6055C70.7637 39.8047 70.7871 40.0449 70.8223 40.3262C70.8574 40.6074 70.916 40.8887 70.998 41.1699C71.0801 41.4512 71.1855 41.7148 71.3145 41.9609C71.4434 42.1953 71.6016 42.3711 71.7891 42.4883C71.8477 42.5234 71.9004 42.541 71.9473 42.541C72.0059 42.541 72.0645 42.5586 72.123 42.5938L72.2285 42.8398C72.2988 42.8633 72.3926 42.8633 72.5098 42.8398C72.627 42.8164 72.7148 42.8047 72.7734 42.8047C72.8555 42.8047 72.9141 42.8164 72.9492 42.8398C72.9961 42.8633 73.0312 42.8926 73.0547 42.9277C73.0898 42.9512 73.1191 42.9805 73.1426 43.0156C73.166 43.0391 73.207 43.0566 73.2656 43.0684C73.418 43.1035 73.5762 43.1211 73.7402 43.1211C73.9043 43.1094 74.0566 43.1035 74.1973 43.1035C74.3613 43.1035 74.5195 43.1152 74.6719 43.1387C74.8359 43.1621 74.9941 43.2207 75.1465 43.3145C75.2402 43.2441 75.3633 43.1914 75.5156 43.1562C75.6797 43.1094 75.8438 43.0684 76.0078 43.0332C76.1719 42.998 76.3242 42.957 76.4648 42.9102C76.6055 42.8633 76.7051 42.8047 76.7637 42.7344C76.9629 42.4883 77.1621 42.2188 77.3613 41.9258C77.5605 41.6328 77.7422 41.3516 77.9062 41.082C77.8828 40.8242 77.8828 40.5723 77.9062 40.3262C77.9297 40.0684 77.9414 39.8047 77.9414 39.5352C77.9414 39.2656 77.9062 39.0488 77.8359 38.8848C77.7656 38.709 77.6836 38.5508 77.5898 38.4102C77.5078 38.2695 77.4199 38.1289 77.3262 37.9883C77.2324 37.8477 77.1621 37.6777 77.1152 37.4785C77.0098 37.4316 76.8926 37.3906 76.7637 37.3555C76.6348 37.3203 76.5 37.2793 76.3594 37.2324C76.2305 37.1855 76.1074 37.1328 75.9902 37.0742C75.873 37.0039 75.7793 36.9102 75.709 36.793C75.4277 36.793 75.1699 36.752 74.9355 36.6699C74.7012 36.5762 74.4551 36.4648 74.1973 36.3359C74.0566 36.3711 73.9219 36.3945 73.793 36.4062C73.6641 36.4062 73.5234 36.4062 73.3711 36.4062C73.0547 36.4062 72.75 36.3652 72.457 36.2832C72.1758 36.1895 71.9004 36.0957 71.6309 36.002C71.3613 35.9082 71.0918 35.8262 70.8223 35.7559C70.5645 35.6738 70.3008 35.6387 70.0312 35.6504C69.9023 35.4863 69.7207 35.293 69.4863 35.0703C69.252 34.8477 69.0117 34.625 68.7656 34.4023C68.5312 34.1797 68.3145 33.9746 68.1152 33.7871C67.916 33.5879 67.7871 33.4297 67.7285 33.3125C67.6348 33.1719 67.5586 33.0195 67.5 32.8555C67.4531 32.6797 67.4004 32.5098 67.3418 32.3457C67.2949 32.1816 67.2363 32.0234 67.166 31.8711C67.1074 31.7188 67.0195 31.584 66.9023 31.4668C66.9961 31.2793 67.043 31.0625 67.043 30.8164C67.043 30.6055 67.0195 30.4004 66.9727 30.2012C66.9258 29.9902 66.9023 29.7793 66.9023 29.5684C66.9023 29.3926 66.9258 29.2344 66.9727 29.0938C67.0195 28.9414 67.0664 28.7891 67.1133 28.6367C67.1719 28.4844 67.2188 28.3262 67.2539 28.1621C67.2891 27.998 67.2891 27.8164 67.2539 27.6172C67.9336 26.7734 68.5488 25.8477 69.0996 24.8398C69.2637 24.7109 69.4395 24.5996 69.627 24.5059C69.8262 24.4121 69.9961 24.3008 70.1367 24.1719C70.5469 23.832 70.9512 23.5742 71.3496 23.3984C71.748 23.2109 72.2227 23.1172 72.7734 23.1172C72.9492 23.1172 73.1133 23.0762 73.2656 22.9941C73.418 22.9004 73.5762 22.8242 73.7402 22.7656C73.8574 22.7305 73.998 22.7012 74.1621 22.6777C74.3379 22.6543 74.5195 22.6367 74.707 22.625C74.8945 22.6133 75.0703 22.6074 75.2344 22.6074C75.4102 22.6074 75.5566 22.6074 75.6738 22.6074C76.0137 22.6074 76.3184 22.6543 76.5879 22.748C76.8574 22.8301 77.1445 22.8711 77.4492 22.8711C77.5898 22.8711 77.7305 22.9297 77.8711 23.0469C78.0117 23.1641 78.1465 23.2578 78.2754 23.3281C78.6504 23.5273 79.0312 23.7148 79.418 23.8906C79.8164 24.0664 80.2148 24.2305 80.6133 24.3828C80.7188 24.5469 80.8359 24.6934 80.9648 24.8223C81.1055 24.9395 81.2461 25.0566 81.3867 25.1738C81.5391 25.2793 81.6855 25.3906 81.8262 25.5078C81.9668 25.625 82.1016 25.7539 82.2305 25.8945C82.3359 26.2812 82.4531 26.6797 82.582 27.0898C82.7109 27.4883 82.8281 27.8926 82.9336 28.3027C83.0508 28.7012 83.1504 29.1113 83.2324 29.5332C83.3145 29.9434 83.3555 30.3477 83.3555 30.7461Z" fill="white"/>
<path d="M153.92 40.94C153.92 48.89 144.25 55.34 132.32 55.34C120.39 55.34 110.72 48.89 110.72 40.94C110.72 32.985 120.39 26.54 132.32 26.54C144.245 26.54 153.92 32.985 153.92 40.94Z" fill="#2F2F2F"/>
<path d="M162.54 46.085L157.39 45.155C157.545 44.335 157.65 43.505 157.705 42.665L162.61 41.935C162.89 41.8918 163.141 41.74 163.31 41.5125C163.478 41.285 163.55 41.0002 163.51 40.72C163.425 40.135 162.885 39.745 162.295 39.82L157.76 40.5C157.75 39.985 157.735 39.475 157.7 38.96C157.44 35.07 155.925 31.115 153.465 27.73C153.12 22.4 151.845 9.52502 147.5 7.54502C144.095 5.99502 138.175 14.39 135.935 17.98C134.41 17.78 132.86 17.68 131.32 17.68C129.85 17.68 128.375 17.775 126.92 17.96C124.675 14.34 118.81 5.98502 115.41 7.52002C111.125 9.45502 109.785 21.975 109.395 27.44C106.81 30.885 105.21 34.955 104.94 38.96C104.91 39.405 104.89 39.855 104.88 40.3L101.7 39.825C101.12 39.75 100.575 40.14 100.49 40.725C100.405 41.31 100.805 41.85 101.39 41.94L104.92 42.465C104.98 43.455 105.095 44.435 105.295 45.395L101.455 46.085C101.317 46.11 101.185 46.1618 101.068 46.2376C100.95 46.3135 100.848 46.4117 100.768 46.5269C100.688 46.642 100.632 46.7718 100.602 46.9087C100.572 47.0457 100.57 47.1871 100.595 47.325C100.64 47.5704 100.77 47.7922 100.962 47.952C101.154 48.1118 101.395 48.1995 101.645 48.2C101.705 48.2 101.77 48.195 101.835 48.185L105.85 47.46C106.185 48.46 106.625 49.43 107.175 50.36L103.32 51.585C103.059 51.6776 102.844 51.868 102.721 52.116C102.597 52.364 102.575 52.6502 102.659 52.9143C102.743 53.1783 102.926 53.3995 103.169 53.5312C103.413 53.6628 103.698 53.6947 103.965 53.62L108.455 52.195C109.22 53.12 110.12 53.995 111.195 54.795C114.22 57.05 117.98 58.58 121.86 59.41C123.335 59.725 127.14 60.46 131.135 60.46C135.13 60.46 139.31 59.725 140.785 59.41C144.66 58.58 148.425 57.05 151.45 54.795C152.655 53.895 153.64 52.905 154.455 51.85L160.035 53.625C160.305 53.7104 160.598 53.6851 160.849 53.5548C161.1 53.4245 161.289 53.1998 161.375 52.93C161.55 52.37 161.24 51.765 160.68 51.59L155.675 50C156.165 49.11 156.565 48.185 156.865 47.235L162.16 48.19C162.225 48.2 162.29 48.205 162.35 48.205C162.855 48.205 163.305 47.845 163.4 47.33C163.505 46.75 163.12 46.195 162.54 46.085V46.085ZM118.47 41.385C115.73 41.385 113.5 39.28 113.5 36.68C113.5 36.09 113.625 35.53 113.84 35.01L122.7 39.135C121.82 40.48 120.26 41.385 118.47 41.385ZM146.06 50.95C145.97 51.2147 145.8 51.4448 145.574 51.608C145.347 51.7712 145.074 51.8593 144.795 51.86C144.655 51.86 144.51 51.84 144.37 51.79C143.185 51.39 142.275 50.855 141.57 50.275C138.15 52.43 134.88 53.13 132.12 53.13C127.56 53.13 124.385 51.27 124.175 51.145C123.878 50.9599 123.666 50.6658 123.584 50.326C123.502 49.9863 123.557 49.6278 123.736 49.3279C123.916 49.0279 124.206 48.8103 124.544 48.7219C124.882 48.6335 125.242 48.6813 125.545 48.855C125.825 49.02 132.32 52.735 139.845 48.195C139.32 47.235 139.21 46.47 139.2 46.4C139.105 45.67 139.615 45 140.35 44.9C141.075 44.81 141.74 45.31 141.845 46.03C141.865 46.155 142.27 48.265 145.225 49.26C145.92 49.495 146.295 50.25 146.06 50.95V50.95ZM144.17 41.385C142.16 41.385 140.44 40.25 139.655 38.625L148.55 34.485C148.92 35.14 149.15 35.88 149.15 36.675C149.145 39.28 146.915 41.385 144.17 41.385Z" fill="#F79329"/>
<path d="M198.195 42.998C198.195 43.209 198.166 43.3965 198.107 43.5605C198.049 43.7129 197.979 43.8535 197.896 43.9824C197.814 44.1113 197.721 44.2402 197.615 44.3691C197.521 44.498 197.434 44.6504 197.352 44.8262L197.105 44.791C196.871 44.791 196.637 44.8086 196.402 44.8438C196.168 44.8789 195.934 44.8965 195.699 44.8965C195.488 44.8965 195.289 44.8613 195.102 44.791C194.926 44.7207 194.791 44.5742 194.697 44.3516C194.533 44.2578 194.369 44.1875 194.205 44.1406C194.041 44.1055 193.895 44.0234 193.766 43.8945V43.7188C193.766 43.5547 193.713 43.4082 193.607 43.2793C193.502 43.1504 193.432 43.0039 193.396 42.8398C193.326 42.5234 193.297 42.1953 193.309 41.8555C193.32 41.5039 193.326 41.1641 193.326 40.8359C193.326 40.543 193.297 40.2559 193.238 39.9746C193.18 39.6934 193.115 39.418 193.045 39.1484C192.975 38.8672 192.91 38.5918 192.852 38.3223C192.805 38.041 192.793 37.7598 192.816 37.4785C192.312 37.4199 191.814 37.373 191.322 37.3379C190.842 37.291 190.344 37.2676 189.828 37.2676C189.395 37.2676 188.955 37.291 188.51 37.3379C188.076 37.373 187.654 37.4727 187.244 37.6367C187.021 37.5078 186.781 37.4141 186.523 37.3555C186.277 37.2969 186.025 37.2676 185.768 37.2676C185.498 37.2676 185.258 37.3027 185.047 37.373C184.953 37.6074 184.906 37.8418 184.906 38.0762C184.906 38.3105 184.871 38.5449 184.801 38.7793C184.777 38.8848 184.736 38.9609 184.678 39.0078C184.631 39.043 184.596 39.0898 184.572 39.1484C184.549 39.207 184.543 39.2715 184.555 39.3418C184.566 39.4004 184.572 39.4648 184.572 39.5352C184.572 39.6055 184.52 39.7168 184.414 39.8691C184.32 40.0215 184.256 40.1621 184.221 40.291C184.162 40.5957 184.127 40.9238 184.115 41.2754C184.115 41.6152 184.115 41.9492 184.115 42.2773C184.115 42.3477 184.139 42.4121 184.186 42.4707C184.232 42.5176 184.256 42.5703 184.256 42.6289C184.256 42.6875 184.168 42.8457 183.992 43.1035C183.816 43.3496 183.617 43.6191 183.395 43.9121C183.184 44.1934 182.984 44.4453 182.797 44.668C182.609 44.9023 182.51 45.0254 182.498 45.0371C182.416 45.0605 182.34 45.0723 182.27 45.0723C182.199 45.0723 182.129 45.0723 182.059 45.0723C181.648 45.0723 181.25 44.9727 180.863 44.7734C180.477 44.5859 180.131 44.3633 179.826 44.1055V43.8594C179.826 43.5547 179.803 43.25 179.756 42.9453C179.709 42.6289 179.65 42.3184 179.58 42.0137C179.744 41.8027 179.85 41.5859 179.896 41.3633C179.943 41.1406 179.955 40.9062 179.932 40.6602C180.037 40.543 180.125 40.4492 180.195 40.3789C180.277 40.3086 180.342 40.2383 180.389 40.168C180.436 40.0977 180.465 40.0156 180.477 39.9219C180.5 39.8281 180.512 39.6992 180.512 39.5352V39.4648L180.758 39.2539C180.781 39.125 180.781 39.0078 180.758 38.9023C180.734 38.7852 180.723 38.6621 180.723 38.5332C180.723 38.4395 180.734 38.3633 180.758 38.3047L180.986 38.0938C181.01 38.0234 181.016 37.959 181.004 37.9004C180.992 37.8301 180.986 37.7656 180.986 37.707C180.986 37.6484 181.004 37.6016 181.039 37.5664C181.074 37.5195 181.115 37.4727 181.162 37.4258C181.209 37.3789 181.25 37.332 181.285 37.2852C181.32 37.2383 181.338 37.1855 181.338 37.127V37.0566C180.857 36.9863 180.389 36.9863 179.932 37.0566C179.779 36.9512 179.621 36.8398 179.457 36.7227C179.305 36.6055 179.164 36.4824 179.035 36.3535C178.906 36.2246 178.801 36.0781 178.719 35.9141C178.637 35.75 178.596 35.5625 178.596 35.3516C178.596 34.9648 178.672 34.6719 178.824 34.4727C178.977 34.2734 179.158 34.1094 179.369 33.9805C179.592 33.8398 179.826 33.7109 180.072 33.5938C180.33 33.4766 180.559 33.3066 180.758 33.084H181.672C181.883 32.873 182.064 32.6445 182.217 32.3984C182.381 32.1406 182.51 31.8652 182.604 31.5723C182.639 31.4668 182.656 31.3555 182.656 31.2383C182.656 31.1211 182.674 31.0098 182.709 30.9043C182.814 30.6699 182.955 30.459 183.131 30.2715C183.307 30.0723 183.441 29.8496 183.535 29.6035C183.594 29.416 183.611 29.2227 183.588 29.0234C183.564 28.8242 183.582 28.6309 183.641 28.4434C183.746 28.127 183.863 27.8457 183.992 27.5996C184.121 27.3535 184.244 27.1074 184.361 26.8613C184.49 26.6035 184.596 26.3164 184.678 26C184.76 25.6836 184.801 25.2969 184.801 24.8398C184.801 24.7695 184.783 24.7109 184.748 24.6641C184.713 24.6172 184.695 24.5586 184.695 24.4883C184.695 24.418 184.742 24.3125 184.836 24.1719C184.941 24.0312 185.012 23.9082 185.047 23.8027C185.082 23.6738 185.082 23.5508 185.047 23.4336C185.023 23.3047 185.012 23.1758 185.012 23.0469C185.012 22.9648 185.076 22.7832 185.205 22.502C185.334 22.209 185.486 21.9043 185.662 21.5879C185.838 21.2598 186.02 20.9551 186.207 20.6738C186.395 20.3809 186.547 20.1875 186.664 20.0938C186.676 19.8359 186.723 19.6133 186.805 19.4258C186.887 19.2266 186.98 19.0391 187.086 18.8633C187.191 18.6875 187.303 18.5117 187.42 18.3359C187.537 18.1602 187.637 17.9668 187.719 17.7559C187.883 17.7559 188 17.6855 188.07 17.5449C188.094 17.5215 188.129 17.5098 188.176 17.5098C188.363 17.5098 188.574 17.5273 188.809 17.5625C189.043 17.5977 189.312 17.6152 189.617 17.6152C189.887 17.6152 190.145 17.6797 190.391 17.8086C190.648 17.9258 190.883 18.0664 191.094 18.2305C191.293 18.3828 191.48 18.6406 191.656 19.0039C191.844 19.3672 192.02 19.7891 192.184 20.2695C192.348 20.7383 192.5 21.2422 192.641 21.7812C192.793 22.3203 192.934 22.8477 193.062 23.3633C193.191 23.8672 193.314 24.3359 193.432 24.7695C193.549 25.1914 193.66 25.5312 193.766 25.7891C193.824 25.9531 193.9 26.1055 193.994 26.2461C194.088 26.375 194.164 26.5332 194.223 26.7207C194.258 26.8848 194.27 27.0547 194.258 27.2305C194.246 27.4062 194.27 27.582 194.328 27.7578C194.375 27.9102 194.434 28.0449 194.504 28.1621C194.574 28.2793 194.639 28.4082 194.697 28.5488C194.791 28.9121 194.85 29.2871 194.873 29.6738C194.896 30.0488 194.984 30.4062 195.137 30.7461C195.441 31.4375 195.688 32.1406 195.875 32.8555C196.074 33.5703 196.174 34.2969 196.174 35.0352C196.174 35.1992 196.221 35.3691 196.314 35.5449C196.314 35.6387 196.344 35.7383 196.402 35.8438C196.461 35.9492 196.525 36.0605 196.596 36.1777C196.678 36.2832 196.754 36.3887 196.824 36.4941C196.906 36.5996 196.965 36.6992 197 36.793C197.023 36.8633 197.07 37.0566 197.141 37.373C197.211 37.6777 197.287 38.0469 197.369 38.4805C197.463 38.9141 197.557 39.3828 197.65 39.8867C197.744 40.3789 197.832 40.8477 197.914 41.293C197.996 41.7266 198.061 42.1016 198.107 42.418C198.166 42.7344 198.195 42.9277 198.195 42.998ZM191.779 33.4531C191.768 33.2188 191.727 32.9902 191.656 32.7676C191.586 32.5449 191.504 32.3281 191.41 32.1172C191.328 31.8945 191.24 31.6719 191.146 31.4492C191.064 31.2148 191 30.9805 190.953 30.7461C190.918 30.5 190.906 30.2363 190.918 29.9551C190.941 29.6738 190.918 29.3984 190.848 29.1289C190.812 28.9883 190.771 28.8887 190.725 28.8301C190.689 28.7715 190.654 28.7188 190.619 28.6719C190.596 28.6133 190.572 28.543 190.549 28.4609C190.525 28.3672 190.514 28.2207 190.514 28.0215C190.514 27.916 190.484 27.8164 190.426 27.7227C190.379 27.6289 190.326 27.5352 190.268 27.4414C190.209 27.3477 190.15 27.2363 190.092 27.1074C190.045 26.9785 190.021 26.8262 190.021 26.6504C190.021 26.5449 190.039 26.4395 190.074 26.334C190.109 26.2168 190.139 26.1055 190.162 26C189.939 25.8008 189.752 25.5781 189.6 25.332C189.459 25.0859 189.295 24.8516 189.107 24.6289C189.025 24.6758 188.973 24.752 188.949 24.8574C188.926 24.9629 188.914 25.0801 188.914 25.209C188.914 25.3262 188.914 25.4492 188.914 25.5781C188.914 25.707 188.896 25.8125 188.861 25.8945C188.826 26 188.756 26.082 188.65 26.1406C188.557 26.1875 188.475 26.2578 188.404 26.3516C188.346 26.4453 188.299 26.5508 188.264 26.668C188.24 26.7852 188.176 26.873 188.07 26.9316V27.9863C187.801 28.3027 187.578 28.6719 187.402 29.0938C187.238 29.5156 187.098 29.9551 186.98 30.4121C186.875 30.8691 186.787 31.332 186.717 31.8008C186.658 32.2578 186.605 32.6855 186.559 33.084C186.594 33.1074 186.635 33.125 186.682 33.1367C186.729 33.1367 186.77 33.1367 186.805 33.1367C187.004 33.1367 187.197 33.1133 187.385 33.0664C187.572 33.0078 187.766 32.9785 187.965 32.9785C188.469 32.9785 188.961 33.0137 189.441 33.084C189.57 33.1074 189.682 33.1543 189.775 33.2246C189.881 33.2832 189.998 33.3125 190.127 33.3125C190.186 33.3125 190.232 33.2949 190.268 33.2598C190.314 33.2246 190.385 33.207 190.479 33.207C190.666 33.207 190.842 33.2598 191.006 33.3652C191.17 33.4707 191.346 33.5234 191.533 33.5234C191.604 33.5234 191.686 33.5 191.779 33.4531ZM218.129 33.8047C218.129 33.9688 218.076 34.1328 217.971 34.2969C217.865 34.4609 217.795 34.625 217.76 34.7891C217.736 34.9883 217.725 35.1816 217.725 35.3691C217.725 35.5449 217.725 35.7207 217.725 35.8965C217.725 36.2012 217.689 36.4824 217.619 36.7402C217.561 36.9863 217.479 37.2266 217.373 37.4609C217.279 37.6836 217.174 37.9062 217.057 38.1289C216.939 38.3516 216.828 38.5918 216.723 38.8496C216.664 39.002 216.641 39.1602 216.652 39.3242C216.664 39.4883 216.652 39.6406 216.617 39.7812C216.57 39.9102 216.506 40.0273 216.424 40.1328C216.342 40.2266 216.283 40.3379 216.248 40.4668C216.225 40.5957 216.195 40.7832 216.16 41.0293C216.137 41.2637 216.09 41.498 216.02 41.7324C215.961 41.9551 215.867 42.1426 215.738 42.2949C215.609 42.4473 215.434 42.5 215.211 42.4531C215.117 42.6172 215.012 42.7695 214.895 42.9102C214.789 43.0508 214.701 43.209 214.631 43.3848H214.561C214.373 43.3848 214.209 43.4258 214.068 43.5078C213.939 43.5898 213.775 43.6191 213.576 43.5957C213.447 43.666 213.342 43.7598 213.26 43.877C213.178 43.9824 213.09 44.0938 212.996 44.2109C212.914 44.3281 212.82 44.4395 212.715 44.5449C212.609 44.6504 212.48 44.7324 212.328 44.791C212.27 44.8145 212.193 44.8262 212.1 44.8262C212.018 44.8379 211.924 44.8438 211.818 44.8438C211.713 44.8438 211.613 44.8496 211.52 44.8613C211.426 44.873 211.344 44.8848 211.273 44.8965C211.109 44.9316 210.951 44.9727 210.799 45.0195C210.658 45.0781 210.506 45.1074 210.342 45.1074C210.049 45.1074 209.762 45.0547 209.48 44.9492C209.199 44.8438 208.912 44.791 208.619 44.791C208.455 44.791 208.291 44.7969 208.127 44.8086C207.975 44.8203 207.828 44.8262 207.688 44.8262C207.43 44.8262 207.195 44.7793 206.984 44.6855C206.785 44.6035 206.621 44.4453 206.492 44.2109H206.422C206.281 44.2109 206.158 44.1934 206.053 44.1582C205.959 44.123 205.865 44.082 205.771 44.0352C205.689 43.9883 205.602 43.9414 205.508 43.8945C205.426 43.8359 205.332 43.7891 205.227 43.7539C205.086 43.8828 204.992 44.0703 204.945 44.3164C204.898 44.5742 204.875 44.8027 204.875 45.002C204.875 45.3066 204.893 45.6113 204.928 45.916C204.963 46.2324 204.98 46.543 204.98 46.8477C204.98 47.1172 205.021 47.375 205.104 47.6211C205.186 47.8672 205.227 48.125 205.227 48.3945C205.227 48.4883 205.209 48.6055 205.174 48.7461C205.139 48.8984 205.098 49.0684 205.051 49.2559C205.004 49.4434 204.963 49.6426 204.928 49.8535C204.893 50.0645 204.875 50.2754 204.875 50.4863C204.875 50.6504 204.893 50.8145 204.928 50.9785C204.963 51.1543 204.98 51.3242 204.98 51.4883C204.98 51.6289 204.928 51.7812 204.822 51.9453C204.729 52.1211 204.605 52.291 204.453 52.4551C204.312 52.6309 204.16 52.7891 203.996 52.9297C203.844 53.0703 203.715 53.1758 203.609 53.2461C203.176 53.2344 202.742 53.1934 202.309 53.123C201.887 53.0527 201.506 52.8652 201.166 52.5605C201.189 52.4199 201.207 52.2852 201.219 52.1562C201.23 52.0273 201.236 51.8984 201.236 51.7695C201.236 51.2305 201.189 50.7031 201.096 50.1875C201.002 49.6836 200.955 49.168 200.955 48.6406C200.955 48.3477 200.984 48.0547 201.043 47.7617C201.113 47.4805 201.236 47.2227 201.412 46.9883C201.307 46.6484 201.219 46.2969 201.148 45.9336C201.09 45.582 201.061 45.2246 201.061 44.8613C201.061 44.6621 201.072 44.4688 201.096 44.2812C201.119 44.0938 201.178 43.918 201.271 43.7539V43.6484C201.283 43.543 201.26 43.4551 201.201 43.3848C201.154 43.3145 201.102 43.25 201.043 43.1914C200.984 43.1328 200.926 43.0684 200.867 42.998C200.82 42.9277 200.797 42.8398 200.797 42.7344C200.797 42.6289 200.838 42.5469 200.92 42.4883C201.014 42.418 201.061 42.3477 201.061 42.2773V42.2422C200.99 42.2422 200.955 42.1895 200.955 42.084C200.955 41.8496 201.008 41.6035 201.113 41.3457C201.219 41.0762 201.271 40.8066 201.271 40.5371C201.271 40.0332 201.236 39.5293 201.166 39.0254C201.096 38.5098 201.061 37.9941 201.061 37.4785C201.061 37.3145 201.078 37.1562 201.113 37.0039C201.148 36.8398 201.166 36.6875 201.166 36.5469C201.166 36.4414 201.131 36.3418 201.061 36.248C200.99 36.1543 200.955 36.0605 200.955 35.9668C200.955 35.8613 200.973 35.7617 201.008 35.668C201.043 35.5742 201.061 35.4688 201.061 35.3516C201.061 35.2578 201.043 35.1699 201.008 35.0879C200.973 34.9941 200.955 34.8945 200.955 34.7891C200.955 34.625 200.99 34.4551 201.061 34.2793C201.131 34.1035 201.166 33.9219 201.166 33.7344C201.166 33.4648 201.148 33.1953 201.113 32.9258C201.078 32.6562 201.061 32.375 201.061 32.082C201.061 31.7773 201.096 31.4785 201.166 31.1855C201.236 30.8926 201.271 30.5938 201.271 30.2891C201.271 30.125 201.242 29.9668 201.184 29.8145C201.125 29.6504 201.084 29.4922 201.061 29.3398C200.99 28.8711 200.973 28.4082 201.008 27.9512C201.043 27.4824 201.061 27.0137 201.061 26.5449C201.061 26.3574 201.043 26.1758 201.008 26C200.973 25.8125 200.955 25.6191 200.955 25.4199C200.955 25.4082 200.967 25.332 200.99 25.1914C201.014 25.0391 201.037 24.875 201.061 24.6992C201.084 24.5234 201.107 24.3652 201.131 24.2246C201.154 24.084 201.166 24.002 201.166 23.9785L201.412 23.873C201.424 23.8379 201.436 23.7793 201.447 23.6973C201.471 23.6152 201.488 23.5332 201.5 23.4512C201.523 23.3691 201.547 23.293 201.57 23.2227C201.594 23.1523 201.617 23.1055 201.641 23.082C201.711 23.0117 201.816 22.9648 201.957 22.9414C202.098 22.9062 202.18 22.8359 202.203 22.7305H202.783C203.076 22.707 203.369 22.7129 203.662 22.748C203.967 22.7715 204.26 22.8359 204.541 22.9414C204.682 23.1875 204.781 23.4453 204.84 23.7148C204.91 23.9844 204.951 24.2598 204.963 24.541C204.986 24.8223 204.992 25.1035 204.98 25.3848C204.98 25.666 204.992 25.9414 205.016 26.2109C205.227 26.1523 205.396 26.0586 205.525 25.9297C205.654 25.8008 205.766 25.6602 205.859 25.5078C205.953 25.3438 206.047 25.1855 206.141 25.0332C206.234 24.8691 206.352 24.7227 206.492 24.5938C206.551 24.5469 206.65 24.4824 206.791 24.4004C206.943 24.3066 207.096 24.2188 207.248 24.1367C207.4 24.043 207.541 23.9668 207.67 23.9082C207.799 23.8379 207.875 23.791 207.898 23.7676C208.004 23.6738 208.086 23.5625 208.145 23.4336C208.215 23.3047 208.326 23.2227 208.479 23.1875C208.947 23.0469 209.445 22.8945 209.973 22.7305C210.5 22.5547 211.01 22.4668 211.502 22.4668C212.006 22.4668 212.41 22.4961 212.715 22.5547C213.02 22.6133 213.289 22.707 213.523 22.8359C213.758 22.9531 213.992 23.1055 214.227 23.293C214.461 23.4805 214.754 23.709 215.105 23.9785C215.199 24.0723 215.293 24.1367 215.387 24.1719C215.48 24.1953 215.574 24.2539 215.668 24.3477C215.703 24.3828 215.779 24.4883 215.896 24.6641C216.014 24.8398 216.137 25.0332 216.266 25.2441C216.395 25.4551 216.512 25.6543 216.617 25.8418C216.734 26.0293 216.805 26.1523 216.828 26.2109C216.992 26.5391 217.121 26.8906 217.215 27.2656C217.309 27.6289 217.455 27.9746 217.654 28.3027V28.5137C217.643 28.8535 217.66 29.1934 217.707 29.5332C217.754 29.873 217.807 30.2129 217.865 30.5527C217.936 30.8926 217.994 31.2324 218.041 31.5723C218.1 31.9121 218.129 32.252 218.129 32.5918C218.129 32.7207 218.105 32.8379 218.059 32.9434C218.023 33.0488 218.006 33.1602 218.006 33.2773C218.006 33.3828 218.023 33.4766 218.059 33.5586C218.105 33.6289 218.129 33.7109 218.129 33.8047ZM214.297 33.6289C214.297 33.3945 214.262 33.1836 214.191 32.9961C214.133 32.7969 214.086 32.5859 214.051 32.3633C214.016 32.0586 214.004 31.7539 214.016 31.4492C214.039 31.1445 214.051 30.8398 214.051 30.5352C214.051 30.3008 214.021 30.0664 213.963 29.832C213.904 29.5977 213.875 29.3633 213.875 29.1289C213.875 29.0703 213.875 29.0117 213.875 28.9531C213.887 28.8945 213.91 28.8359 213.945 28.7773C213.746 28.5195 213.582 28.2559 213.453 27.9863C213.324 27.7051 213.213 27.4121 213.119 27.1074C212.943 27.0254 212.791 26.9199 212.662 26.791C212.545 26.6504 212.422 26.5215 212.293 26.4043C212.176 26.2754 212.041 26.1699 211.889 26.0879C211.736 25.9941 211.531 25.9531 211.273 25.9648C211.145 26.0703 211.01 26.123 210.869 26.123C210.74 26.123 210.6 26.1523 210.447 26.2109C210.318 26.2578 210.207 26.3223 210.113 26.4043C210.02 26.4746 209.926 26.5508 209.832 26.6328C209.738 26.7031 209.639 26.7676 209.533 26.8262C209.428 26.873 209.305 26.8965 209.164 26.8965H209.041C208.959 27.002 208.836 27.1191 208.672 27.248C208.52 27.377 208.361 27.5176 208.197 27.6699C208.045 27.8105 207.91 27.9629 207.793 28.127C207.688 28.291 207.652 28.4609 207.688 28.6367C207.5 28.6836 207.348 28.7656 207.23 28.8828C207.125 28.9883 207.031 29.1113 206.949 29.252C206.879 29.3926 206.803 29.5332 206.721 29.6738C206.639 29.8145 206.527 29.9316 206.387 30.0254V31.0801C206.305 31.1621 206.211 31.2383 206.105 31.3086C206.012 31.3672 205.912 31.4316 205.807 31.502C205.713 31.5723 205.625 31.6484 205.543 31.7305C205.461 31.8125 205.391 31.9062 205.332 32.0117C205.32 32.0234 205.297 32.1055 205.262 32.2578C205.238 32.3984 205.203 32.5801 205.156 32.8027C205.121 33.0137 205.08 33.2422 205.033 33.4883C204.986 33.7344 204.939 33.9688 204.893 34.1914C204.857 34.4141 204.828 34.6074 204.805 34.7715C204.781 34.9355 204.77 35.0352 204.77 35.0703C204.77 35.2109 204.799 35.3574 204.857 35.5098C204.928 35.6504 204.98 35.8027 205.016 35.9668C205.051 36.1309 205.074 36.3184 205.086 36.5293C205.098 36.7285 205.109 36.9336 205.121 37.1445C205.145 37.3555 205.168 37.5605 205.191 37.7598C205.227 37.959 205.273 38.1289 205.332 38.2695C205.449 38.5273 205.584 38.7793 205.736 39.0254C205.889 39.2598 205.994 39.5117 206.053 39.7812C206.346 39.9219 206.598 40.0859 206.809 40.2734C207.031 40.4609 207.26 40.6426 207.494 40.8184C207.729 40.9824 207.992 41.123 208.285 41.2402C208.59 41.3574 208.965 41.416 209.41 41.416C209.633 41.416 209.844 41.3867 210.043 41.3281C210.254 41.2695 210.453 41.1992 210.641 41.1172C210.84 41.0352 211.039 40.959 211.238 40.8887C211.438 40.8066 211.643 40.7539 211.854 40.7305C211.982 40.6133 212.076 40.4844 212.135 40.3438C212.193 40.1914 212.258 40.0449 212.328 39.9043L212.539 39.7812C212.68 39.6055 212.779 39.4062 212.838 39.1836C212.896 38.9609 212.949 38.7383 212.996 38.5156C213.055 38.293 213.119 38.082 213.189 37.8828C213.271 37.6719 213.4 37.4902 213.576 37.3379C213.611 37.0215 213.664 36.7168 213.734 36.4238C213.816 36.1191 213.898 35.8203 213.98 35.5273C214.062 35.2227 214.133 34.918 214.191 34.6133C214.262 34.2969 214.297 33.9688 214.297 33.6289ZM238.555 33.8047C238.555 33.9688 238.502 34.1328 238.396 34.2969C238.291 34.4609 238.221 34.625 238.186 34.7891C238.162 34.9883 238.15 35.1816 238.15 35.3691C238.15 35.5449 238.15 35.7207 238.15 35.8965C238.15 36.2012 238.115 36.4824 238.045 36.7402C237.986 36.9863 237.904 37.2266 237.799 37.4609C237.705 37.6836 237.6 37.9062 237.482 38.1289C237.365 38.3516 237.254 38.5918 237.148 38.8496C237.09 39.002 237.066 39.1602 237.078 39.3242C237.09 39.4883 237.078 39.6406 237.043 39.7812C236.996 39.9102 236.932 40.0273 236.85 40.1328C236.768 40.2266 236.709 40.3379 236.674 40.4668C236.65 40.5957 236.621 40.7832 236.586 41.0293C236.562 41.2637 236.516 41.498 236.445 41.7324C236.387 41.9551 236.293 42.1426 236.164 42.2949C236.035 42.4473 235.859 42.5 235.637 42.4531C235.543 42.6172 235.438 42.7695 235.32 42.9102C235.215 43.0508 235.127 43.209 235.057 43.3848H234.986C234.799 43.3848 234.635 43.4258 234.494 43.5078C234.365 43.5898 234.201 43.6191 234.002 43.5957C233.873 43.666 233.768 43.7598 233.686 43.877C233.604 43.9824 233.516 44.0938 233.422 44.2109C233.34 44.3281 233.246 44.4395 233.141 44.5449C233.035 44.6504 232.906 44.7324 232.754 44.791C232.695 44.8145 232.619 44.8262 232.525 44.8262C232.443 44.8379 232.35 44.8438 232.244 44.8438C232.139 44.8438 232.039 44.8496 231.945 44.8613C231.852 44.873 231.77 44.8848 231.699 44.8965C231.535 44.9316 231.377 44.9727 231.225 45.0195C231.084 45.0781 230.932 45.1074 230.768 45.1074C230.475 45.1074 230.188 45.0547 229.906 44.9492C229.625 44.8438 229.338 44.791 229.045 44.791C228.881 44.791 228.717 44.7969 228.553 44.8086C228.4 44.8203 228.254 44.8262 228.113 44.8262C227.855 44.8262 227.621 44.7793 227.41 44.6855C227.211 44.6035 227.047 44.4453 226.918 44.2109H226.848C226.707 44.2109 226.584 44.1934 226.479 44.1582C226.385 44.123 226.291 44.082 226.197 44.0352C226.115 43.9883 226.027 43.9414 225.934 43.8945C225.852 43.8359 225.758 43.7891 225.652 43.7539C225.512 43.8828 225.418 44.0703 225.371 44.3164C225.324 44.5742 225.301 44.8027 225.301 45.002C225.301 45.3066 225.318 45.6113 225.354 45.916C225.389 46.2324 225.406 46.543 225.406 46.8477C225.406 47.1172 225.447 47.375 225.529 47.6211C225.611 47.8672 225.652 48.125 225.652 48.3945C225.652 48.4883 225.635 48.6055 225.6 48.7461C225.564 48.8984 225.523 49.0684 225.477 49.2559C225.43 49.4434 225.389 49.6426 225.354 49.8535C225.318 50.0645 225.301 50.2754 225.301 50.4863C225.301 50.6504 225.318 50.8145 225.354 50.9785C225.389 51.1543 225.406 51.3242 225.406 51.4883C225.406 51.6289 225.354 51.7812 225.248 51.9453C225.154 52.1211 225.031 52.291 224.879 52.4551C224.738 52.6309 224.586 52.7891 224.422 52.9297C224.27 53.0703 224.141 53.1758 224.035 53.2461C223.602 53.2344 223.168 53.1934 222.734 53.123C222.312 53.0527 221.932 52.8652 221.592 52.5605C221.615 52.4199 221.633 52.2852 221.645 52.1562C221.656 52.0273 221.662 51.8984 221.662 51.7695C221.662 51.2305 221.615 50.7031 221.521 50.1875C221.428 49.6836 221.381 49.168 221.381 48.6406C221.381 48.3477 221.41 48.0547 221.469 47.7617C221.539 47.4805 221.662 47.2227 221.838 46.9883C221.732 46.6484 221.645 46.2969 221.574 45.9336C221.516 45.582 221.486 45.2246 221.486 44.8613C221.486 44.6621 221.498 44.4688 221.521 44.2812C221.545 44.0938 221.604 43.918 221.697 43.7539V43.6484C221.709 43.543 221.686 43.4551 221.627 43.3848C221.58 43.3145 221.527 43.25 221.469 43.1914C221.41 43.1328 221.352 43.0684 221.293 42.998C221.246 42.9277 221.223 42.8398 221.223 42.7344C221.223 42.6289 221.264 42.5469 221.346 42.4883C221.439 42.418 221.486 42.3477 221.486 42.2773V42.2422C221.416 42.2422 221.381 42.1895 221.381 42.084C221.381 41.8496 221.434 41.6035 221.539 41.3457C221.645 41.0762 221.697 40.8066 221.697 40.5371C221.697 40.0332 221.662 39.5293 221.592 39.0254C221.521 38.5098 221.486 37.9941 221.486 37.4785C221.486 37.3145 221.504 37.1562 221.539 37.0039C221.574 36.8398 221.592 36.6875 221.592 36.5469C221.592 36.4414 221.557 36.3418 221.486 36.248C221.416 36.1543 221.381 36.0605 221.381 35.9668C221.381 35.8613 221.398 35.7617 221.434 35.668C221.469 35.5742 221.486 35.4688 221.486 35.3516C221.486 35.2578 221.469 35.1699 221.434 35.0879C221.398 34.9941 221.381 34.8945 221.381 34.7891C221.381 34.625 221.416 34.4551 221.486 34.2793C221.557 34.1035 221.592 33.9219 221.592 33.7344C221.592 33.4648 221.574 33.1953 221.539 32.9258C221.504 32.6562 221.486 32.375 221.486 32.082C221.486 31.7773 221.521 31.4785 221.592 31.1855C221.662 30.8926 221.697 30.5938 221.697 30.2891C221.697 30.125 221.668 29.9668 221.609 29.8145C221.551 29.6504 221.51 29.4922 221.486 29.3398C221.416 28.8711 221.398 28.4082 221.434 27.9512C221.469 27.4824 221.486 27.0137 221.486 26.5449C221.486 26.3574 221.469 26.1758 221.434 26C221.398 25.8125 221.381 25.6191 221.381 25.4199C221.381 25.4082 221.393 25.332 221.416 25.1914C221.439 25.0391 221.463 24.875 221.486 24.6992C221.51 24.5234 221.533 24.3652 221.557 24.2246C221.58 24.084 221.592 24.002 221.592 23.9785L221.838 23.873C221.85 23.8379 221.861 23.7793 221.873 23.6973C221.896 23.6152 221.914 23.5332 221.926 23.4512C221.949 23.3691 221.973 23.293 221.996 23.2227C222.02 23.1523 222.043 23.1055 222.066 23.082C222.137 23.0117 222.242 22.9648 222.383 22.9414C222.523 22.9062 222.605 22.8359 222.629 22.7305H223.209C223.502 22.707 223.795 22.7129 224.088 22.748C224.393 22.7715 224.686 22.8359 224.967 22.9414C225.107 23.1875 225.207 23.4453 225.266 23.7148C225.336 23.9844 225.377 24.2598 225.389 24.541C225.412 24.8223 225.418 25.1035 225.406 25.3848C225.406 25.666 225.418 25.9414 225.441 26.2109C225.652 26.1523 225.822 26.0586 225.951 25.9297C226.08 25.8008 226.191 25.6602 226.285 25.5078C226.379 25.3438 226.473 25.1855 226.566 25.0332C226.66 24.8691 226.777 24.7227 226.918 24.5938C226.977 24.5469 227.076 24.4824 227.217 24.4004C227.369 24.3066 227.521 24.2188 227.674 24.1367C227.826 24.043 227.967 23.9668 228.096 23.9082C228.225 23.8379 228.301 23.791 228.324 23.7676C228.43 23.6738 228.512 23.5625 228.57 23.4336C228.641 23.3047 228.752 23.2227 228.904 23.1875C229.373 23.0469 229.871 22.8945 230.398 22.7305C230.926 22.5547 231.436 22.4668 231.928 22.4668C232.432 22.4668 232.836 22.4961 233.141 22.5547C233.445 22.6133 233.715 22.707 233.949 22.8359C234.184 22.9531 234.418 23.1055 234.652 23.293C234.887 23.4805 235.18 23.709 235.531 23.9785C235.625 24.0723 235.719 24.1367 235.812 24.1719C235.906 24.1953 236 24.2539 236.094 24.3477C236.129 24.3828 236.205 24.4883 236.322 24.6641C236.439 24.8398 236.562 25.0332 236.691 25.2441C236.82 25.4551 236.938 25.6543 237.043 25.8418C237.16 26.0293 237.23 26.1523 237.254 26.2109C237.418 26.5391 237.547 26.8906 237.641 27.2656C237.734 27.6289 237.881 27.9746 238.08 28.3027V28.5137C238.068 28.8535 238.086 29.1934 238.133 29.5332C238.18 29.873 238.232 30.2129 238.291 30.5527C238.361 30.8926 238.42 31.2324 238.467 31.5723C238.525 31.9121 238.555 32.252 238.555 32.5918C238.555 32.7207 238.531 32.8379 238.484 32.9434C238.449 33.0488 238.432 33.1602 238.432 33.2773C238.432 33.3828 238.449 33.4766 238.484 33.5586C238.531 33.6289 238.555 33.7109 238.555 33.8047ZM234.723 33.6289C234.723 33.3945 234.688 33.1836 234.617 32.9961C234.559 32.7969 234.512 32.5859 234.477 32.3633C234.441 32.0586 234.43 31.7539 234.441 31.4492C234.465 31.1445 234.477 30.8398 234.477 30.5352C234.477 30.3008 234.447 30.0664 234.389 29.832C234.33 29.5977 234.301 29.3633 234.301 29.1289C234.301 29.0703 234.301 29.0117 234.301 28.9531C234.312 28.8945 234.336 28.8359 234.371 28.7773C234.172 28.5195 234.008 28.2559 233.879 27.9863C233.75 27.7051 233.639 27.4121 233.545 27.1074C233.369 27.0254 233.217 26.9199 233.088 26.791C232.971 26.6504 232.848 26.5215 232.719 26.4043C232.602 26.2754 232.467 26.1699 232.314 26.0879C232.162 25.9941 231.957 25.9531 231.699 25.9648C231.57 26.0703 231.436 26.123 231.295 26.123C231.166 26.123 231.025 26.1523 230.873 26.2109C230.744 26.2578 230.633 26.3223 230.539 26.4043C230.445 26.4746 230.352 26.5508 230.258 26.6328C230.164 26.7031 230.064 26.7676 229.959 26.8262C229.854 26.873 229.73 26.8965 229.59 26.8965H229.467C229.385 27.002 229.262 27.1191 229.098 27.248C228.945 27.377 228.787 27.5176 228.623 27.6699C228.471 27.8105 228.336 27.9629 228.219 28.127C228.113 28.291 228.078 28.4609 228.113 28.6367C227.926 28.6836 227.773 28.7656 227.656 28.8828C227.551 28.9883 227.457 29.1113 227.375 29.252C227.305 29.3926 227.229 29.5332 227.146 29.6738C227.064 29.8145 226.953 29.9316 226.812 30.0254V31.0801C226.73 31.1621 226.637 31.2383 226.531 31.3086C226.438 31.3672 226.338 31.4316 226.232 31.502C226.139 31.5723 226.051 31.6484 225.969 31.7305C225.887 31.8125 225.816 31.9062 225.758 32.0117C225.746 32.0234 225.723 32.1055 225.688 32.2578C225.664 32.3984 225.629 32.5801 225.582 32.8027C225.547 33.0137 225.506 33.2422 225.459 33.4883C225.412 33.7344 225.365 33.9688 225.318 34.1914C225.283 34.4141 225.254 34.6074 225.23 34.7715C225.207 34.9355 225.195 35.0352 225.195 35.0703C225.195 35.2109 225.225 35.3574 225.283 35.5098C225.354 35.6504 225.406 35.8027 225.441 35.9668C225.477 36.1309 225.5 36.3184 225.512 36.5293C225.523 36.7285 225.535 36.9336 225.547 37.1445C225.57 37.3555 225.594 37.5605 225.617 37.7598C225.652 37.959 225.699 38.1289 225.758 38.2695C225.875 38.5273 226.01 38.7793 226.162 39.0254C226.314 39.2598 226.42 39.5117 226.479 39.7812C226.771 39.9219 227.023 40.0859 227.234 40.2734C227.457 40.4609 227.686 40.6426 227.92 40.8184C228.154 40.9824 228.418 41.123 228.711 41.2402C229.016 41.3574 229.391 41.416 229.836 41.416C230.059 41.416 230.27 41.3867 230.469 41.3281C230.68 41.2695 230.879 41.1992 231.066 41.1172C231.266 41.0352 231.465 40.959 231.664 40.8887C231.863 40.8066 232.068 40.7539 232.279 40.7305C232.408 40.6133 232.502 40.4844 232.561 40.3438C232.619 40.1914 232.684 40.0449 232.754 39.9043L232.965 39.7812C233.105 39.6055 233.205 39.4062 233.264 39.1836C233.322 38.9609 233.375 38.7383 233.422 38.5156C233.48 38.293 233.545 38.082 233.615 37.8828C233.697 37.6719 233.826 37.4902 234.002 37.3379C234.037 37.0215 234.09 36.7168 234.16 36.4238C234.242 36.1191 234.324 35.8203 234.406 35.5273C234.488 35.2227 234.559 34.918 234.617 34.6133C234.688 34.2969 234.723 33.9688 234.723 33.6289Z" fill="white"/>
</svg>
